solid OpenSCAD_Model
  facet normal -1 0 0
    outer loop
      vertex -1.2 -14.4858 0
      vertex -1.2 -14.4858 13
      vertex -1.2 -12.9 0
    endloop
  endfacet
  facet normal -1 0 0
    outer loop
      vertex -1.2 -12.9 0
      vertex -1.2 -14.4858 13
      vertex -1.2 -12.9 13
    endloop
  endfacet
  facet normal -0.707107 -0.707107 0
    outer loop
      vertex 0.214214 -15.9 0
      vertex 0.214214 -15.9 13
      vertex -1.2 -14.4858 13
    endloop
  endfacet
  facet normal -0.707107 -0.707107 0
    outer loop
      vertex -1.2 -14.4858 0
      vertex 0.214214 -15.9 0
      vertex -1.2 -14.4858 13
    endloop
  endfacet
  facet normal 0 0 -1
    outer loop
      vertex -1.2 -14.4858 0
      vertex -1.2 -12.9 0
      vertex 0.214214 -15.9 0
    endloop
  endfacet
  facet normal 0 0 -1
    outer loop
      vertex 0 -13.9 0
      vertex -1.2 -12.9 0
      vertex 0 -12.9 0
    endloop
  endfacet
  facet normal 0 0 -1
    outer loop
      vertex 0.214214 -15.9 0
      vertex -1.2 -12.9 0
      vertex 0 -13.9 0
    endloop
  endfacet
  facet normal 0 0 -1
    outer loop
      vertex -1.2 16.9 0
      vertex 0 17.9 0
      vertex 0 16.9 0
    endloop
  endfacet
  facet normal 0 0 -1
    outer loop
      vertex 1.65 -13.9 0
      vertex 1.65 -12.4 0
      vertex 4.15 -12.4 0
    endloop
  endfacet
  facet normal 0 0 -1
    outer loop
      vertex 1.65 -13.9 0
      vertex 4.15 -12.4 0
      vertex 0.214214 -15.9 0
    endloop
  endfacet
  facet normal 0 0 -1
    outer loop
      vertex 4.15 16.4 0
      vertex 1.65 16.4 0
      vertex 1.65 17.9 0
    endloop
  endfacet
  facet normal 0 0 -1
    outer loop
      vertex 8.65 -12.947 0
      vertex 17.854 -12.337 0
      vertex 17.639 -12.655 0
    endloop
  endfacet
  facet normal 0 0 -1
    outer loop
      vertex 21.432 18.803 0
      vertex 21.932 19.303 0
      vertex 21.786 18.949 0
    endloop
  endfacet
  facet normal 0 0 -1
    outer loop
      vertex 0 17.9 0
      vertex -1.2 16.9 0
      vertex -1.2 18.4858 0
    endloop
  endfacet
  facet normal 0 0 -1
    outer loop
      vertex 0 17.9 0
      vertex -1.2 18.4858 0
      vertex 1.65 17.9 0
    endloop
  endfacet
  facet normal 0 0 -1
    outer loop
      vertex 1.65 17.9 0
      vertex -1.2 18.4858 0
      vertex 0.214214 19.9 0
    endloop
  endfacet
  facet normal 0 0 -1
    outer loop
      vertex 1.65 17.9 0
      vertex 0.214214 19.9 0
      vertex 4.15 16.4 0
    endloop
  endfacet
  facet normal 0 0 -1
    outer loop
      vertex 4.15 16.4 0
      vertex 0.214214 19.9 0
      vertex 4.291 19.9 0
    endloop
  endfacet
  facet normal 0 0 -1
    outer loop
      vertex 4.15 16.4 0
      vertex 4.291 19.9 0
      vertex 4.15 -12.4 0
    endloop
  endfacet
  facet normal 0 0 -1
    outer loop
      vertex 4.291 19.9 0
      vertex 4.291 24 0
      vertex 21.932 24 0
    endloop
  endfacet
  facet normal 0 0 -1
    outer loop
      vertex 17.932 -11.947 0
      vertex 4.15 -12.4 0
      vertex 4.291 19.9 0
    endloop
  endfacet
  facet normal 0 0 -1
    outer loop
      vertex 21.432 18.803 0
      vertex 21.932 24 0
      vertex 21.932 19.303 0
    endloop
  endfacet
  facet normal 0 0 -1
    outer loop
      vertex 20.876 18.803 0
      vertex 21.932 24 0
      vertex 21.432 18.803 0
    endloop
  endfacet
  facet normal 0 0 -1
    outer loop
      vertex 18.932 21.553 0
      vertex 21.932 24 0
      vertex 19.973 19.372 0
    endloop
  endfacet
  facet normal 0 0 -1
    outer loop
      vertex 20.342 18.957 0
      vertex 21.932 24 0
      vertex 20.876 18.803 0
    endloop
  endfacet
  facet normal 0 0 -1
    outer loop
      vertex 8.65 -12.947 0
      vertex 17.639 -12.655 0
      vertex 17.321 -12.869 0
    endloop
  endfacet
  facet normal 0 0 -1
    outer loop
      vertex 19.973 19.372 0
      vertex 21.932 24 0
      vertex 20.342 18.957 0
    endloop
  endfacet
  facet normal 0 0 -1
    outer loop
      vertex 8.65 -12.947 0
      vertex 17.321 -12.869 0
      vertex 16.932 -12.947 0
    endloop
  endfacet
  facet normal 0 0 -1
    outer loop
      vertex 17.932 -11.947 0
      vertex 4.291 19.9 0
      vertex 17.932 21.553 0
    endloop
  endfacet
  facet normal 0 0 -1
    outer loop
      vertex 17.932 21.553 0
      vertex 21.932 24 0
      vertex 18.932 21.553 0
    endloop
  endfacet
  facet normal 0 0 -1
    outer loop
      vertex 4.291 19.9 0
      vertex 21.932 24 0
      vertex 17.932 21.553 0
    endloop
  endfacet
  facet normal 0 0 -1
    outer loop
      vertex 8.65 -12.947 0
      vertex 17.932 -11.947 0
      vertex 17.854 -12.337 0
    endloop
  endfacet
  facet normal 0 0 -1
    outer loop
      vertex 4.15 -12.4 0
      vertex 17.932 -11.947 0
      vertex 8.65 -12.947 0
    endloop
  endfacet
  facet normal 0 0 -1
    outer loop
      vertex 4.15 -12.4 0
      vertex 8.65 -12.947 0
      vertex 0.214214 -15.9 0
    endloop
  endfacet
  facet normal 0 0 -1
    outer loop
      vertex 19.182 -13.947 0
      vertex 0.214214 -15.9 0
      vertex 8.65 -13.947 0
    endloop
  endfacet
  facet normal 0 0 -1
    outer loop
      vertex 8.65 -12.947 0
      vertex 8.286 -13.104 0
      vertex 0.214214 -15.9 0
    endloop
  endfacet
  facet normal 0 0 -1
    outer loop
      vertex 8.286 -13.104 0
      vertex 8.17 -13.447 0
      vertex 0.214214 -15.9 0
    endloop
  endfacet
  facet normal 0 0 -1
    outer loop
      vertex 8.17 -13.447 0
      vertex 8.293 -13.791 0
      vertex 0.214214 -15.9 0
    endloop
  endfacet
  facet normal 0 0 -1
    outer loop
      vertex 8.293 -13.791 0
      vertex 8.65 -13.947 0
      vertex 0.214214 -15.9 0
    endloop
  endfacet
  facet normal 0 0 -1
    outer loop
      vertex 19.588 -11.822 0
      vertex 19.182 -13.947 0
      vertex 19.324 -11.792 0
    endloop
  endfacet
  facet normal 0 0 -1
    outer loop
      vertex 19.182 -12.018 0
      vertex 19.324 -11.792 0
      vertex 19.182 -13.947 0
    endloop
  endfacet
  facet normal 0 0 -1
    outer loop
      vertex 4.291 -15.9 0
      vertex 23.271 -15.909 0
      vertex 4.291 -15.909 0
    endloop
  endfacet
  facet normal 0 0 -1
    outer loop
      vertex 19.182 -13.947 0
      vertex 19.588 -11.822 0
      vertex 23.584 -15.018 0
    endloop
  endfacet
  facet normal 0 0 -1
    outer loop
      vertex 19.182 -13.947 0
      vertex 23.584 -15.018 0
      vertex 0.214214 -15.9 0
    endloop
  endfacet
  facet normal 0 0 -1
    outer loop
      vertex 23.584 -15.018 0
      vertex 23.752 -15.271 0
      vertex 0.214214 -15.9 0
    endloop
  endfacet
  facet normal 0 0 -1
    outer loop
      vertex 0.214214 -15.9 0
      vertex 23.752 -15.271 0
      vertex 23.743 -15.574 0
    endloop
  endfacet
  facet normal 0 0 -1
    outer loop
      vertex 0.214214 -15.9 0
      vertex 23.743 -15.574 0
      vertex 23.56 -15.817 0
    endloop
  endfacet
  facet normal 0 0 -1
    outer loop
      vertex 4.291 -15.9 0
      vertex 23.56 -15.817 0
      vertex 23.271 -15.909 0
    endloop
  endfacet
  facet normal 0 0 -1
    outer loop
      vertex 0.214214 -15.9 0
      vertex 23.56 -15.817 0
      vertex 4.291 -15.9 0
    endloop
  endfacet
  facet normal 0 0 -1
    outer loop
      vertex 1.65 -13.9 0
      vertex 0.214214 -15.9 0
      vertex 0 -13.9 0
    endloop
  endfacet
  facet normal 0 1 0
    outer loop
      vertex 0 -12.9 13
      vertex 0 -12.9 0
      vertex -1.2 -12.9 13
    endloop
  endfacet
  facet normal 0 1 0
    outer loop
      vertex -1.2 -12.9 13
      vertex 0 -12.9 0
      vertex -1.2 -12.9 0
    endloop
  endfacet
  facet normal 0 0 1
    outer loop
      vertex -1.2 -12.9 13
      vertex -1.2 -14.4858 13
      vertex 0.214214 -15.9 13
    endloop
  endfacet
  facet normal 0 0 1
    outer loop
      vertex 0 -13.9 13
      vertex 0 -12.9 13
      vertex -1.2 -12.9 13
    endloop
  endfacet
  facet normal 0 0 1
    outer loop
      vertex 0 -13.9 13
      vertex -1.2 -12.9 13
      vertex 0.214214 -15.9 13
    endloop
  endfacet
  facet normal 0 0 1
    outer loop
      vertex 23.271 -15.909 13
      vertex 4.291 -15.9 13
      vertex 4.291 -15.909 13
    endloop
  endfacet
  facet normal 0 0 1
    outer loop
      vertex 1.65 -13.9 13
      vertex 0 -13.9 13
      vertex 4.291 -15.9 13
    endloop
  endfacet
  facet normal 0 0 1
    outer loop
      vertex 4.15 -12.4 13
      vertex 8.65 -12.947 13
      vertex 17.854 -12.337 13
    endloop
  endfacet
  facet normal 0 0 1
    outer loop
      vertex 19.588 -11.822 13
      vertex 19.182 -12.018 13
      vertex 23.584 -15.018 13
    endloop
  endfacet
  facet normal 0 0 1
    outer loop
      vertex 19.182 -12.018 13
      vertex 19.182 -13.947 13
      vertex 23.584 -15.018 13
    endloop
  endfacet
  facet normal 0 0 1
    outer loop
      vertex 23.752 -15.271 13
      vertex 8.65 -13.947 13
      vertex 23.743 -15.574 13
    endloop
  endfacet
  facet normal 0 0 1
    outer loop
      vertex 8.65 -12.947 13
      vertex 17.639 -12.655 13
      vertex 17.854 -12.337 13
    endloop
  endfacet
  facet normal 0 0 1
    outer loop
      vertex 8.65 -12.947 13
      vertex 16.932 -12.947 13
      vertex 17.639 -12.655 13
    endloop
  endfacet
  facet normal 0 0 1
    outer loop
      vertex 1.65 -12.4 13
      vertex 8.65 -12.947 13
      vertex 4.15 -12.4 13
    endloop
  endfacet
  facet normal 0 0 1
    outer loop
      vertex 4.291 19.9 13
      vertex 0.214214 19.9 13
      vertex 1.65 17.9 13
    endloop
  endfacet
  facet normal 0 0 1
    outer loop
      vertex 17.321 -12.869 13
      vertex 17.639 -12.655 13
      vertex 16.932 -12.947 13
    endloop
  endfacet
  facet normal 0 0 1
    outer loop
      vertex 21.932 24 13
      vertex 17.932 21.553 13
      vertex 18.932 21.553 13
    endloop
  endfacet
  facet normal 0 0 1
    outer loop
      vertex 20.342 18.957 13
      vertex 18.932 21.553 13
      vertex 19.973 19.372 13
    endloop
  endfacet
  facet normal 0 0 1
    outer loop
      vertex 20.876 18.803 13
      vertex 18.932 21.553 13
      vertex 20.342 18.957 13
    endloop
  endfacet
  facet normal 0 0 1
    outer loop
      vertex 21.432 18.803 13
      vertex 18.932 21.553 13
      vertex 20.876 18.803 13
    endloop
  endfacet
  facet normal 0 0 1
    outer loop
      vertex 21.786 18.949 13
      vertex 18.932 21.553 13
      vertex 21.432 18.803 13
    endloop
  endfacet
  facet normal 0 0 1
    outer loop
      vertex 21.932 19.303 13
      vertex 18.932 21.553 13
      vertex 21.786 18.949 13
    endloop
  endfacet
  facet normal 0 0 1
    outer loop
      vertex 21.932 24 13
      vertex 18.932 21.553 13
      vertex 21.932 19.303 13
    endloop
  endfacet
  facet normal 0 0 1
    outer loop
      vertex 21.932 24 13
      vertex 4.291 24 13
      vertex 17.932 21.553 13
    endloop
  endfacet
  facet normal 0 0 1
    outer loop
      vertex 0 17.9 13
      vertex 1.65 17.9 13
      vertex 0.214214 19.9 13
    endloop
  endfacet
  facet normal 0 0 1
    outer loop
      vertex 4.291 24 13
      vertex 4.291 19.9 13
      vertex 17.932 21.553 13
    endloop
  endfacet
  facet normal 0 0 1
    outer loop
      vertex 4.15 -12.4 13
      vertex 17.854 -12.337 13
      vertex 17.932 -11.947 13
    endloop
  endfacet
  facet normal 0 0 1
    outer loop
      vertex 1.65 16.4 13
      vertex 4.15 16.4 13
      vertex 4.291 19.9 13
    endloop
  endfacet
  facet normal 0 0 1
    outer loop
      vertex -1.2 18.4858 13
      vertex -1.2 16.9 13
      vertex 0.214214 19.9 13
    endloop
  endfacet
  facet normal 0 0 1
    outer loop
      vertex 4.15 16.4 13
      vertex 4.15 -12.4 13
      vertex 17.932 21.553 13
    endloop
  endfacet
  facet normal 0 0 1
    outer loop
      vertex -1.2 16.9 13
      vertex 0 17.9 13
      vertex 0.214214 19.9 13
    endloop
  endfacet
  facet normal 0 0 1
    outer loop
      vertex -1.2 16.9 13
      vertex 0 16.9 13
      vertex 0 17.9 13
    endloop
  endfacet
  facet normal 0 0 1
    outer loop
      vertex 4.291 19.9 13
      vertex 4.15 16.4 13
      vertex 17.932 21.553 13
    endloop
  endfacet
  facet normal 0 0 1
    outer loop
      vertex 23.271 -15.909 13
      vertex 1.65 -13.9 13
      vertex 4.291 -15.9 13
    endloop
  endfacet
  facet normal 0 0 1
    outer loop
      vertex 4.291 -15.9 13
      vertex 0 -13.9 13
      vertex 0.214214 -15.9 13
    endloop
  endfacet
  facet normal 0 0 1
    outer loop
      vertex 17.932 -11.947 13
      vertex 17.932 21.553 13
      vertex 4.15 -12.4 13
    endloop
  endfacet
  facet normal 0 0 1
    outer loop
      vertex 4.291 19.9 13
      vertex 1.65 17.9 13
      vertex 1.65 16.4 13
    endloop
  endfacet
  facet normal 0 0 1
    outer loop
      vertex 19.324 -11.792 13
      vertex 19.182 -12.018 13
      vertex 19.588 -11.822 13
    endloop
  endfacet
  facet normal 0 0 1
    outer loop
      vertex 19.182 -13.947 13
      vertex 23.752 -15.271 13
      vertex 23.584 -15.018 13
    endloop
  endfacet
  facet normal 0 0 1
    outer loop
      vertex 19.182 -13.947 13
      vertex 8.65 -13.947 13
      vertex 23.752 -15.271 13
    endloop
  endfacet
  facet normal 0 0 1
    outer loop
      vertex 1.65 -12.4 13
      vertex 8.286 -13.104 13
      vertex 8.65 -12.947 13
    endloop
  endfacet
  facet normal 0 0 1
    outer loop
      vertex 1.65 -12.4 13
      vertex 8.17 -13.447 13
      vertex 8.286 -13.104 13
    endloop
  endfacet
  facet normal 0 0 1
    outer loop
      vertex 1.65 -12.4 13
      vertex 8.293 -13.791 13
      vertex 8.17 -13.447 13
    endloop
  endfacet
  facet normal 0 0 1
    outer loop
      vertex 1.65 -12.4 13
      vertex 8.65 -13.947 13
      vertex 8.293 -13.791 13
    endloop
  endfacet
  facet normal 0 0 1
    outer loop
      vertex 8.65 -13.947 13
      vertex 23.56 -15.817 13
      vertex 23.743 -15.574 13
    endloop
  endfacet
  facet normal 0 0 1
    outer loop
      vertex 8.65 -13.947 13
      vertex 23.271 -15.909 13
      vertex 23.56 -15.817 13
    endloop
  endfacet
  facet normal 0 0 1
    outer loop
      vertex 8.65 -13.947 13
      vertex 1.65 -13.9 13
      vertex 23.271 -15.909 13
    endloop
  endfacet
  facet normal 0 0 1
    outer loop
      vertex 1.65 -12.4 13
      vertex 1.65 -13.9 13
      vertex 8.65 -13.947 13
    endloop
  endfacet
  facet normal 0 -1 0
    outer loop
      vertex 0.214214 -15.9 13
      vertex 0.214214 -15.9 0
      vertex 4.291 -15.9 0
    endloop
  endfacet
  facet normal 0 -1 0
    outer loop
      vertex 4.291 -15.9 13
      vertex 0.214214 -15.9 13
      vertex 4.291 -15.9 0
    endloop
  endfacet
  facet normal -1 0 0
    outer loop
      vertex 4.291 -15.909 0
      vertex 4.291 -15.909 13
      vertex 4.291 -15.9 0
    endloop
  endfacet
  facet normal -1 0 0
    outer loop
      vertex 4.291 -15.9 0
      vertex 4.291 -15.909 13
      vertex 4.291 -15.9 13
    endloop
  endfacet
  facet normal 0 -1 0
    outer loop
      vertex 4.291 -15.909 13
      vertex 4.291 -15.909 0
      vertex 23.271 -15.909 0
    endloop
  endfacet
  facet normal 0 -1 0
    outer loop
      vertex 23.271 -15.909 13
      vertex 4.291 -15.909 13
      vertex 23.271 -15.909 0
    endloop
  endfacet
  facet normal 0.30334 -0.952882 0
    outer loop
      vertex 23.271 -15.909 13
      vertex 23.271 -15.909 0
      vertex 23.56 -15.817 0
    endloop
  endfacet
  facet normal 0.30334 -0.952882 0
    outer loop
      vertex 23.56 -15.817 13
      vertex 23.271 -15.909 13
      vertex 23.56 -15.817 0
    endloop
  endfacet
  facet normal 0.798815 -0.601577 0
    outer loop
      vertex 23.56 -15.817 13
      vertex 23.56 -15.817 0
      vertex 23.743 -15.574 0
    endloop
  endfacet
  facet normal 0.798815 -0.601577 0
    outer loop
      vertex 23.743 -15.574 13
      vertex 23.56 -15.817 13
      vertex 23.743 -15.574 0
    endloop
  endfacet
  facet normal 0.999559 -0.0296899 0
    outer loop
      vertex 23.743 -15.574 13
      vertex 23.743 -15.574 0
      vertex 23.752 -15.271 0
    endloop
  endfacet
  facet normal 0.999559 -0.0296899 0
    outer loop
      vertex 23.752 -15.271 13
      vertex 23.743 -15.574 13
      vertex 23.752 -15.271 0
    endloop
  endfacet
  facet normal 0.833062 0.55318 0
    outer loop
      vertex 23.752 -15.271 0
      vertex 23.584 -15.018 0
      vertex 23.584 -15.018 13
    endloop
  endfacet
  facet normal 0.833062 0.55318 0
    outer loop
      vertex 23.752 -15.271 13
      vertex 23.752 -15.271 0
      vertex 23.584 -15.018 13
    endloop
  endfacet
  facet normal 0.6246 0.780945 0
    outer loop
      vertex 19.588 -11.822 0
      vertex 19.588 -11.822 13
      vertex 23.584 -15.018 0
    endloop
  endfacet
  facet normal 0.6246 0.780945 0
    outer loop
      vertex 23.584 -15.018 0
      vertex 19.588 -11.822 13
      vertex 23.584 -15.018 13
    endloop
  endfacet
  facet normal 0.11291 0.993605 0
    outer loop
      vertex 19.324 -11.792 0
      vertex 19.324 -11.792 13
      vertex 19.588 -11.822 0
    endloop
  endfacet
  facet normal 0.11291 0.993605 0
    outer loop
      vertex 19.588 -11.822 0
      vertex 19.324 -11.792 13
      vertex 19.588 -11.822 13
    endloop
  endfacet
  facet normal -0.846733 0.532018 0
    outer loop
      vertex 19.182 -12.018 0
      vertex 19.182 -12.018 13
      vertex 19.324 -11.792 0
    endloop
  endfacet
  facet normal -0.846733 0.532018 0
    outer loop
      vertex 19.324 -11.792 0
      vertex 19.182 -12.018 13
      vertex 19.324 -11.792 13
    endloop
  endfacet
  facet normal -1 0 0
    outer loop
      vertex 19.182 -13.947 0
      vertex 19.182 -13.947 13
      vertex 19.182 -12.018 0
    endloop
  endfacet
  facet normal -1 0 0
    outer loop
      vertex 19.182 -12.018 0
      vertex 19.182 -13.947 13
      vertex 19.182 -12.018 13
    endloop
  endfacet
  facet normal 0 1 0
    outer loop
      vertex 8.65 -13.947 0
      vertex 8.65 -13.947 13
      vertex 19.182 -13.947 0
    endloop
  endfacet
  facet normal 0 1 0
    outer loop
      vertex 19.182 -13.947 0
      vertex 8.65 -13.947 13
      vertex 19.182 -13.947 13
    endloop
  endfacet
  facet normal 0.400415 0.916334 0
    outer loop
      vertex 8.293 -13.791 0
      vertex 8.293 -13.791 13
      vertex 8.65 -13.947 0
    endloop
  endfacet
  facet normal 0.400415 0.916334 0
    outer loop
      vertex 8.65 -13.947 0
      vertex 8.293 -13.791 13
      vertex 8.65 -13.947 13
    endloop
  endfacet
  facet normal 0.941618 0.336683 0
    outer loop
      vertex 8.293 -13.791 0
      vertex 8.17 -13.447 0
      vertex 8.17 -13.447 13
    endloop
  endfacet
  facet normal 0.941618 0.336683 0
    outer loop
      vertex 8.293 -13.791 13
      vertex 8.293 -13.791 0
      vertex 8.17 -13.447 13
    endloop
  endfacet
  facet normal 0.947293 -0.320367 0
    outer loop
      vertex 8.17 -13.447 13
      vertex 8.17 -13.447 0
      vertex 8.286 -13.104 0
    endloop
  endfacet
  facet normal 0.947293 -0.320367 0
    outer loop
      vertex 8.286 -13.104 13
      vertex 8.17 -13.447 13
      vertex 8.286 -13.104 0
    endloop
  endfacet
  facet normal 0.396049 -0.918229 0
    outer loop
      vertex 8.286 -13.104 13
      vertex 8.286 -13.104 0
      vertex 8.65 -12.947 0
    endloop
  endfacet
  facet normal 0.396049 -0.918229 0
    outer loop
      vertex 8.65 -12.947 13
      vertex 8.286 -13.104 13
      vertex 8.65 -12.947 0
    endloop
  endfacet
  facet normal 0 -1 0
    outer loop
      vertex 8.65 -12.947 13
      vertex 8.65 -12.947 0
      vertex 16.932 -12.947 0
    endloop
  endfacet
  facet normal 0 -1 0
    outer loop
      vertex 16.932 -12.947 13
      vertex 8.65 -12.947 13
      vertex 16.932 -12.947 0
    endloop
  endfacet
  facet normal 0.196601 -0.980484 0
    outer loop
      vertex 16.932 -12.947 13
      vertex 16.932 -12.947 0
      vertex 17.321 -12.869 0
    endloop
  endfacet
  facet normal 0.196601 -0.980484 0
    outer loop
      vertex 17.321 -12.869 13
      vertex 16.932 -12.947 13
      vertex 17.321 -12.869 0
    endloop
  endfacet
  facet normal 0.558307 -0.829634 0
    outer loop
      vertex 17.321 -12.869 13
      vertex 17.321 -12.869 0
      vertex 17.639 -12.655 0
    endloop
  endfacet
  facet normal 0.558307 -0.829634 0
    outer loop
      vertex 17.639 -12.655 13
      vertex 17.321 -12.869 13
      vertex 17.639 -12.655 0
    endloop
  endfacet
  facet normal 0.828426 -0.560099 0
    outer loop
      vertex 17.639 -12.655 13
      vertex 17.639 -12.655 0
      vertex 17.854 -12.337 0
    endloop
  endfacet
  facet normal 0.828426 -0.560099 0
    outer loop
      vertex 17.854 -12.337 13
      vertex 17.639 -12.655 13
      vertex 17.854 -12.337 0
    endloop
  endfacet
  facet normal 0.980581 -0.196116 0
    outer loop
      vertex 17.854 -12.337 13
      vertex 17.854 -12.337 0
      vertex 17.932 -11.947 0
    endloop
  endfacet
  facet normal 0.980581 -0.196116 0
    outer loop
      vertex 17.932 -11.947 13
      vertex 17.854 -12.337 13
      vertex 17.932 -11.947 0
    endloop
  endfacet
  facet normal 1 0 0
    outer loop
      vertex 17.932 -11.947 13
      vertex 17.932 -11.947 0
      vertex 17.932 21.553 0
    endloop
  endfacet
  facet normal 1 0 0
    outer loop
      vertex 17.932 21.553 13
      vertex 17.932 -11.947 13
      vertex 17.932 21.553 0
    endloop
  endfacet
  facet normal 0 -1 0
    outer loop
      vertex 17.932 21.553 13
      vertex 17.932 21.553 0
      vertex 18.932 21.553 0
    endloop
  endfacet
  facet normal 0 -1 0
    outer loop
      vertex 18.932 21.553 13
      vertex 17.932 21.553 13
      vertex 18.932 21.553 0
    endloop
  endfacet
  facet normal -0.90247 -0.430753 0
    outer loop
      vertex 18.932 21.553 0
      vertex 19.973 19.372 0
      vertex 18.932 21.553 13
    endloop
  endfacet
  facet normal -0.90247 -0.430753 0
    outer loop
      vertex 18.932 21.553 13
      vertex 19.973 19.372 0
      vertex 19.973 19.372 13
    endloop
  endfacet
  facet normal -0.74731 -0.664476 0
    outer loop
      vertex 19.973 19.372 0
      vertex 20.342 18.957 0
      vertex 19.973 19.372 13
    endloop
  endfacet
  facet normal -0.74731 -0.664476 0
    outer loop
      vertex 19.973 19.372 13
      vertex 20.342 18.957 0
      vertex 20.342 18.957 13
    endloop
  endfacet
  facet normal -0.277097 -0.960842 0
    outer loop
      vertex 20.342 18.957 13
      vertex 20.342 18.957 0
      vertex 20.876 18.803 0
    endloop
  endfacet
  facet normal -0.277097 -0.960842 0
    outer loop
      vertex 20.876 18.803 13
      vertex 20.342 18.957 13
      vertex 20.876 18.803 0
    endloop
  endfacet
  facet normal 0 -1 0
    outer loop
      vertex 20.876 18.803 13
      vertex 20.876 18.803 0
      vertex 21.432 18.803 0
    endloop
  endfacet
  facet normal 0 -1 0
    outer loop
      vertex 21.432 18.803 13
      vertex 20.876 18.803 13
      vertex 21.432 18.803 0
    endloop
  endfacet
  facet normal 0.381275 -0.924462 0
    outer loop
      vertex 21.432 18.803 13
      vertex 21.432 18.803 0
      vertex 21.786 18.949 0
    endloop
  endfacet
  facet normal 0.381275 -0.924462 0
    outer loop
      vertex 21.786 18.949 13
      vertex 21.432 18.803 13
      vertex 21.786 18.949 0
    endloop
  endfacet
  facet normal 0.924462 -0.381275 0
    outer loop
      vertex 21.786 18.949 13
      vertex 21.786 18.949 0
      vertex 21.932 19.303 0
    endloop
  endfacet
  facet normal 0.924462 -0.381275 0
    outer loop
      vertex 21.932 19.303 13
      vertex 21.786 18.949 13
      vertex 21.932 19.303 0
    endloop
  endfacet
  facet normal 1 0 0
    outer loop
      vertex 21.932 19.303 13
      vertex 21.932 19.303 0
      vertex 21.932 24 0
    endloop
  endfacet
  facet normal 1 0 0
    outer loop
      vertex 21.932 24 13
      vertex 21.932 19.303 13
      vertex 21.932 24 0
    endloop
  endfacet
  facet normal 0 1 0
    outer loop
      vertex 21.932 24 13
      vertex 21.932 24 0
      vertex 4.291 24 13
    endloop
  endfacet
  facet normal 0 1 0
    outer loop
      vertex 4.291 24 13
      vertex 21.932 24 0
      vertex 4.291 24 0
    endloop
  endfacet
  facet normal -1 0 0
    outer loop
      vertex 4.291 19.9 0
      vertex 4.291 19.9 13
      vertex 4.291 24 0
    endloop
  endfacet
  facet normal -1 0 0
    outer loop
      vertex 4.291 24 0
      vertex 4.291 19.9 13
      vertex 4.291 24 13
    endloop
  endfacet
  facet normal 0 1 0
    outer loop
      vertex 0.214214 19.9 0
      vertex 0.214214 19.9 13
      vertex 4.291 19.9 0
    endloop
  endfacet
  facet normal 0 1 0
    outer loop
      vertex 4.291 19.9 0
      vertex 0.214214 19.9 13
      vertex 4.291 19.9 13
    endloop
  endfacet
  facet normal -0.707107 0.707107 0
    outer loop
      vertex 0.214214 19.9 13
      vertex 0.214214 19.9 0
      vertex -1.2 18.4858 13
    endloop
  endfacet
  facet normal -0.707107 0.707107 0
    outer loop
      vertex -1.2 18.4858 13
      vertex 0.214214 19.9 0
      vertex -1.2 18.4858 0
    endloop
  endfacet
  facet normal -1 0 0
    outer loop
      vertex -1.2 16.9 0
      vertex -1.2 16.9 13
      vertex -1.2 18.4858 0
    endloop
  endfacet
  facet normal -1 0 0
    outer loop
      vertex -1.2 18.4858 0
      vertex -1.2 16.9 13
      vertex -1.2 18.4858 13
    endloop
  endfacet
  facet normal 0 -1 0
    outer loop
      vertex 0 16.9 0
      vertex 0 16.9 13
      vertex -1.2 16.9 13
    endloop
  endfacet
  facet normal 0 -1 0
    outer loop
      vertex -1.2 16.9 0
      vertex 0 16.9 0
      vertex -1.2 16.9 13
    endloop
  endfacet
  facet normal 1 0 0
    outer loop
      vertex 0 17.9 0
      vertex 0 17.9 13
      vertex 0 16.9 13
    endloop
  endfacet
  facet normal 1 0 0
    outer loop
      vertex 0 16.9 0
      vertex 0 17.9 0
      vertex 0 16.9 13
    endloop
  endfacet
  facet normal 0 -1 0
    outer loop
      vertex 1.65 17.9 0
      vertex 1.65 17.9 13
      vertex 0 17.9 13
    endloop
  endfacet
  facet normal 0 -1 0
    outer loop
      vertex 0 17.9 0
      vertex 1.65 17.9 0
      vertex 0 17.9 13
    endloop
  endfacet
  facet normal -1 0 0
    outer loop
      vertex 1.65 17.9 13
      vertex 1.65 17.9 0
      vertex 1.65 16.4 13
    endloop
  endfacet
  facet normal -1 0 0
    outer loop
      vertex 1.65 16.4 13
      vertex 1.65 17.9 0
      vertex 1.65 16.4 0
    endloop
  endfacet
  facet normal 0 -1 0
    outer loop
      vertex 4.15 16.4 0
      vertex 4.15 16.4 13
      vertex 1.65 16.4 13
    endloop
  endfacet
  facet normal 0 -1 0
    outer loop
      vertex 1.65 16.4 0
      vertex 4.15 16.4 0
      vertex 1.65 16.4 13
    endloop
  endfacet
  facet normal -1 0 0
    outer loop
      vertex 4.15 16.4 13
      vertex 4.15 16.4 0
      vertex 4.15 -12.4 13
    endloop
  endfacet
  facet normal -1 0 0
    outer loop
      vertex 4.15 -12.4 13
      vertex 4.15 16.4 0
      vertex 4.15 -12.4 0
    endloop
  endfacet
  facet normal 0 1 0
    outer loop
      vertex 4.15 -12.4 13
      vertex 4.15 -12.4 0
      vertex 1.65 -12.4 13
    endloop
  endfacet
  facet normal 0 1 0
    outer loop
      vertex 1.65 -12.4 13
      vertex 4.15 -12.4 0
      vertex 1.65 -12.4 0
    endloop
  endfacet
  facet normal -1 0 0
    outer loop
      vertex 1.65 -12.4 13
      vertex 1.65 -12.4 0
      vertex 1.65 -13.9 13
    endloop
  endfacet
  facet normal -1 0 0
    outer loop
      vertex 1.65 -13.9 13
      vertex 1.65 -12.4 0
      vertex 1.65 -13.9 0
    endloop
  endfacet
  facet normal 0 1 0
    outer loop
      vertex 1.65 -13.9 13
      vertex 1.65 -13.9 0
      vertex 0 -13.9 13
    endloop
  endfacet
  facet normal 0 1 0
    outer loop
      vertex 0 -13.9 13
      vertex 1.65 -13.9 0
      vertex 0 -13.9 0
    endloop
  endfacet
  facet normal 1 0 0
    outer loop
      vertex 0 -12.9 0
      vertex 0 -12.9 13
      vertex 0 -13.9 13
    endloop
  endfacet
  facet normal 1 0 0
    outer loop
      vertex 0 -13.9 0
      vertex 0 -12.9 0
      vertex 0 -13.9 13
    endloop
  endfacet
endsolid OpenSCAD_Model
