solid OpenSCAD_Model
  facet normal -1 4.93038e-32 -1.09476e-47
    outer loop
      vertex -6.6 1.18794e-14 2.22045e-16
      vertex -6.6 16 -3.33067e-15
      vertex -6.6 0 -53.5
    endloop
  endfacet
  facet normal -1 4.93038e-32 -1.09476e-47
    outer loop
      vertex -6.6 0 -53.5
      vertex -6.6 16 -3.33067e-15
      vertex -6.6 16 -53.5
    endloop
  endfacet
  facet normal 0 2.22045e-16 1
    outer loop
      vertex -6.6 16 -3.33067e-15
      vertex -6.6 1.18794e-14 2.22045e-16
      vertex 1 1.18794e-14 2.22045e-16
    endloop
  endfacet
  facet normal 0 2.22045e-16 1
    outer loop
      vertex -6.6 67 -1.46549e-14
      vertex -6.6 66.1 -1.44551e-14
      vertex 1 67 -1.46549e-14
    endloop
  endfacet
  facet normal 0 2.22045e-16 1
    outer loop
      vertex -3 16 -3.33067e-15
      vertex -4.1 16 -3.33067e-15
      vertex 1 1.18794e-14 2.22045e-16
    endloop
  endfacet
  facet normal 0 2.22045e-16 1
    outer loop
      vertex -7.436 51.044 -1.1112e-14
      vertex -6.6 51 -1.11022e-14
      vertex -7.342 51.939 -1.13107e-14
    endloop
  endfacet
  facet normal 0 2.22045e-16 1
    outer loop
      vertex -10.6 52.072 -1.13403e-14
      vertex -9.854 51.692 -1.12559e-14
      vertex -10.15 52.851 -1.15132e-14
    endloop
  endfacet
  facet normal 0 2.22045e-16 1
    outer loop
      vertex -11.302 52.528 -1.14415e-14
      vertex -10.773 53.256 -1.16032e-14
      vertex -11.351 53.724 -1.17071e-14
    endloop
  endfacet
  facet normal 0 2.22045e-16 1
    outer loop
      vertex -13.086 61.888 -1.35199e-14
      vertex -12.749 62.55 -1.36668e-14
      vertex -13.072 63.702 -1.39226e-14
    endloop
  endfacet
  facet normal 0 2.22045e-16 1
    outer loop
      vertex -13.661 58.258 -1.27138e-14
      vertex -13.7 59 -1.28786e-14
      vertex -14.208 61.472 -1.34275e-14
    endloop
  endfacet
  facet normal 0 2.22045e-16 1
    outer loop
      vertex -13.528 55 -1.19904e-14
      vertex -13.072 54.298 -1.18345e-14
      vertex -14.208 61.472 -1.34275e-14
    endloop
  endfacet
  facet normal 0 2.22045e-16 1
    outer loop
      vertex -13.908 55.746 -1.21561e-14
      vertex -13.528 55 -1.19904e-14
      vertex -14.425 60.663 -1.32478e-14
    endloop
  endfacet
  facet normal 0 2.22045e-16 1
    outer loop
      vertex -14.208 56.528 -1.23297e-14
      vertex -13.908 55.746 -1.21561e-14
      vertex -14.556 59.836 -1.30642e-14
    endloop
  endfacet
  facet normal 0 2.22045e-16 1
    outer loop
      vertex -14.556 58.164 -1.2693e-14
      vertex -14.425 57.337 -1.25093e-14
      vertex -14.6 59 -1.28786e-14
    endloop
  endfacet
  facet normal 0 2.22045e-16 1
    outer loop
      vertex -14.6 59 -1.28786e-14
      vertex -14.208 56.528 -1.23297e-14
      vertex -14.556 59.836 -1.30642e-14
    endloop
  endfacet
  facet normal 0 2.22045e-16 1
    outer loop
      vertex -14.556 59.836 -1.30642e-14
      vertex -13.908 55.746 -1.21561e-14
      vertex -14.425 60.663 -1.32478e-14
    endloop
  endfacet
  facet normal 0 2.22045e-16 1
    outer loop
      vertex -14.425 60.663 -1.32478e-14
      vertex -13.528 55 -1.19904e-14
      vertex -14.208 61.472 -1.34275e-14
    endloop
  endfacet
  facet normal 0 2.22045e-16 1
    outer loop
      vertex -11.876 63.751 -1.39335e-14
      vertex -11.351 64.276 -1.40501e-14
      vertex -11.953 64.945 -1.41986e-14
    endloop
  endfacet
  facet normal 0 2.22045e-16 1
    outer loop
      vertex -10.15 65.149 -1.42439e-14
      vertex -9.488 65.486 -1.43188e-14
      vertex -9.854 66.308 -1.45013e-14
    endloop
  endfacet
  facet normal 0 2.22045e-16 1
    outer loop
      vertex -6.6 51.9 -1.13021e-14
      vertex -7.342 51.939 -1.13107e-14
      vertex -6.6 51 -1.11022e-14
    endloop
  endfacet
  facet normal 0 2.22045e-16 1
    outer loop
      vertex -3.55 51 -1.11022e-14
      vertex -3.55 54.54 -1.18883e-14
      vertex -4.1 51 -1.11022e-14
    endloop
  endfacet
  facet normal 0 2.22045e-16 1
    outer loop
      vertex -5.124 52.055 -1.13365e-14
      vertex -5.858 51.939 -1.13107e-14
      vertex -6.6 51 -1.11022e-14
    endloop
  endfacet
  facet normal 0 2.22045e-16 1
    outer loop
      vertex -6.6 51 -1.11022e-14
      vertex -4.1 49.8 -1.08358e-14
      vertex -4.1 51 -1.11022e-14
    endloop
  endfacet
  facet normal 0 2.22045e-16 1
    outer loop
      vertex -4.8 52.142 -1.13558e-14
      vertex -4.1 51 -1.11022e-14
      vertex -3.55 54.54 -1.18883e-14
    endloop
  endfacet
  facet normal 0 2.22045e-16 1
    outer loop
      vertex -5.35 56.29 -1.22768e-14
      vertex -3 56.29 -1.22768e-14
      vertex 1 67 -1.46549e-14
    endloop
  endfacet
  facet normal 0 2.22045e-16 1
    outer loop
      vertex -5.858 51.939 -1.13107e-14
      vertex -6.6 51.9 -1.13021e-14
      vertex -6.6 51 -1.11022e-14
    endloop
  endfacet
  facet normal 0 2.22045e-16 1
    outer loop
      vertex -6.6 51 -1.11022e-14
      vertex -4.1 51 -1.11022e-14
      vertex -4.8 52.142 -1.13558e-14
    endloop
  endfacet
  facet normal 0 2.22045e-16 1
    outer loop
      vertex -6.6 51 -1.11022e-14
      vertex -4.8 52.142 -1.13558e-14
      vertex -5.124 52.055 -1.13365e-14
    endloop
  endfacet
  facet normal 0 2.22045e-16 1
    outer loop
      vertex -7.342 51.939 -1.13107e-14
      vertex -8.076 52.055 -1.13365e-14
      vertex -7.436 51.044 -1.1112e-14
    endloop
  endfacet
  facet normal 0 2.22045e-16 1
    outer loop
      vertex -8.076 52.055 -1.13365e-14
      vertex -8.794 52.247 -1.13791e-14
      vertex -8.263 51.175 -1.11411e-14
    endloop
  endfacet
  facet normal 0 2.22045e-16 1
    outer loop
      vertex -4.8 54.54 -1.18883e-14
      vertex -4.8 52.142 -1.13558e-14
      vertex -3.55 54.54 -1.18883e-14
    endloop
  endfacet
  facet normal 0 2.22045e-16 1
    outer loop
      vertex -8.794 52.247 -1.13791e-14
      vertex -9.488 52.514 -1.14384e-14
      vertex -9.072 51.392 -1.11893e-14
    endloop
  endfacet
  facet normal 0 2.22045e-16 1
    outer loop
      vertex -9.488 52.514 -1.14384e-14
      vertex -10.15 52.851 -1.15132e-14
      vertex -9.854 51.692 -1.12559e-14
    endloop
  endfacet
  facet normal 0 2.22045e-16 1
    outer loop
      vertex -8.263 51.175 -1.11411e-14
      vertex -7.436 51.044 -1.1112e-14
      vertex -8.076 52.055 -1.13365e-14
    endloop
  endfacet
  facet normal 0 2.22045e-16 1
    outer loop
      vertex -9.072 51.392 -1.11893e-14
      vertex -8.263 51.175 -1.11411e-14
      vertex -8.794 52.247 -1.13791e-14
    endloop
  endfacet
  facet normal 0 2.22045e-16 1
    outer loop
      vertex -10.15 52.851 -1.15132e-14
      vertex -10.773 53.256 -1.16032e-14
      vertex -10.6 52.072 -1.13403e-14
    endloop
  endfacet
  facet normal 0 2.22045e-16 1
    outer loop
      vertex -11.351 53.724 -1.17071e-14
      vertex -11.876 54.249 -1.18237e-14
      vertex -11.302 52.528 -1.14415e-14
    endloop
  endfacet
  facet normal 0 2.22045e-16 1
    outer loop
      vertex -11.876 54.249 -1.18237e-14
      vertex -12.344 54.827 -1.1952e-14
      vertex -11.953 53.055 -1.15585e-14
    endloop
  endfacet
  facet normal 0 2.22045e-16 1
    outer loop
      vertex -13.661 59.742 -1.30433e-14
      vertex -13.545 60.476 -1.32063e-14
      vertex -13.908 62.254 -1.36011e-14
    endloop
  endfacet
  facet normal 0 2.22045e-16 1
    outer loop
      vertex -11.953 53.055 -1.15585e-14
      vertex -11.302 52.528 -1.14415e-14
      vertex -11.876 54.249 -1.18237e-14
    endloop
  endfacet
  facet normal 0 2.22045e-16 1
    outer loop
      vertex -12.749 62.55 -1.36668e-14
      vertex -12.344 63.173 -1.38052e-14
      vertex -12.545 64.353 -1.40672e-14
    endloop
  endfacet
  facet normal 0 2.22045e-16 1
    outer loop
      vertex -13.086 56.112 -1.22373e-14
      vertex -13.353 56.806 -1.23914e-14
      vertex -13.072 54.298 -1.18345e-14
    endloop
  endfacet
  facet normal 0 2.22045e-16 1
    outer loop
      vertex -13.353 61.194 -1.33658e-14
      vertex -13.086 61.888 -1.35199e-14
      vertex -13.528 63 -1.37668e-14
    endloop
  endfacet
  facet normal 0 2.22045e-16 1
    outer loop
      vertex -12.749 55.45 -1.20903e-14
      vertex -13.086 56.112 -1.22373e-14
      vertex -12.545 53.647 -1.169e-14
    endloop
  endfacet
  facet normal 0 2.22045e-16 1
    outer loop
      vertex -8.076 65.945 -1.44207e-14
      vertex -7.342 66.061 -1.44464e-14
      vertex -7.436 66.956 -1.46452e-14
    endloop
  endfacet
  facet normal 0 2.22045e-16 1
    outer loop
      vertex -13.545 57.524 -1.25508e-14
      vertex -13.072 54.298 -1.18345e-14
      vertex -13.353 56.806 -1.23914e-14
    endloop
  endfacet
  facet normal 0 2.22045e-16 1
    outer loop
      vertex -14.208 61.472 -1.34275e-14
      vertex -13.072 54.298 -1.18345e-14
      vertex -13.545 57.524 -1.25508e-14
    endloop
  endfacet
  facet normal 0 2.22045e-16 1
    outer loop
      vertex -14.208 61.472 -1.34275e-14
      vertex -13.545 57.524 -1.25508e-14
      vertex -13.661 58.258 -1.27138e-14
    endloop
  endfacet
  facet normal 0 2.22045e-16 1
    outer loop
      vertex -14.208 61.472 -1.34275e-14
      vertex -13.7 59 -1.28786e-14
      vertex -13.908 62.254 -1.36011e-14
    endloop
  endfacet
  facet normal 0 2.22045e-16 1
    outer loop
      vertex -13.7 59 -1.28786e-14
      vertex -13.661 59.742 -1.30433e-14
      vertex -13.908 62.254 -1.36011e-14
    endloop
  endfacet
  facet normal 0 2.22045e-16 1
    outer loop
      vertex -13.908 62.254 -1.36011e-14
      vertex -13.545 60.476 -1.32063e-14
      vertex -13.528 63 -1.37668e-14
    endloop
  endfacet
  facet normal 0 2.22045e-16 1
    outer loop
      vertex -13.545 60.476 -1.32063e-14
      vertex -13.353 61.194 -1.33658e-14
      vertex -13.528 63 -1.37668e-14
    endloop
  endfacet
  facet normal 0 2.22045e-16 1
    outer loop
      vertex -13.528 63 -1.37668e-14
      vertex -13.086 61.888 -1.35199e-14
      vertex -13.072 63.702 -1.39226e-14
    endloop
  endfacet
  facet normal 0 2.22045e-16 1
    outer loop
      vertex -13.072 63.702 -1.39226e-14
      vertex -12.749 62.55 -1.36668e-14
      vertex -12.545 64.353 -1.40672e-14
    endloop
  endfacet
  facet normal 0 2.22045e-16 1
    outer loop
      vertex -12.344 54.827 -1.1952e-14
      vertex -12.749 55.45 -1.20903e-14
      vertex -12.545 53.647 -1.169e-14
    endloop
  endfacet
  facet normal 0 2.22045e-16 1
    outer loop
      vertex -12.545 64.353 -1.40672e-14
      vertex -12.344 63.173 -1.38052e-14
      vertex -11.953 64.945 -1.41986e-14
    endloop
  endfacet
  facet normal 0 2.22045e-16 1
    outer loop
      vertex -12.344 63.173 -1.38052e-14
      vertex -11.876 63.751 -1.39335e-14
      vertex -11.953 64.945 -1.41986e-14
    endloop
  endfacet
  facet normal 0 2.22045e-16 1
    outer loop
      vertex -9.854 51.692 -1.12559e-14
      vertex -9.072 51.392 -1.11893e-14
      vertex -9.488 52.514 -1.14384e-14
    endloop
  endfacet
  facet normal 0 2.22045e-16 1
    outer loop
      vertex -11.953 64.945 -1.41986e-14
      vertex -11.351 64.276 -1.40501e-14
      vertex -11.302 65.472 -1.43157e-14
    endloop
  endfacet
  facet normal 0 2.22045e-16 1
    outer loop
      vertex -11.351 64.276 -1.40501e-14
      vertex -10.773 64.744 -1.4154e-14
      vertex -11.302 65.472 -1.43157e-14
    endloop
  endfacet
  facet normal 0 2.22045e-16 1
    outer loop
      vertex -11.302 65.472 -1.43157e-14
      vertex -10.773 64.744 -1.4154e-14
      vertex -10.6 65.928 -1.44169e-14
    endloop
  endfacet
  facet normal 0 2.22045e-16 1
    outer loop
      vertex -10.773 64.744 -1.4154e-14
      vertex -10.15 65.149 -1.42439e-14
      vertex -10.6 65.928 -1.44169e-14
    endloop
  endfacet
  facet normal 0 2.22045e-16 1
    outer loop
      vertex -10.6 65.928 -1.44169e-14
      vertex -10.15 65.149 -1.42439e-14
      vertex -9.854 66.308 -1.45013e-14
    endloop
  endfacet
  facet normal 0 2.22045e-16 1
    outer loop
      vertex -9.854 66.308 -1.45013e-14
      vertex -9.488 65.486 -1.43188e-14
      vertex -9.072 66.608 -1.45679e-14
    endloop
  endfacet
  facet normal 0 2.22045e-16 1
    outer loop
      vertex -9.488 65.486 -1.43188e-14
      vertex -8.794 65.753 -1.43781e-14
      vertex -9.072 66.608 -1.45679e-14
    endloop
  endfacet
  facet normal 0 2.22045e-16 1
    outer loop
      vertex -9.072 66.608 -1.45679e-14
      vertex -8.794 65.753 -1.43781e-14
      vertex -8.263 66.825 -1.46161e-14
    endloop
  endfacet
  facet normal 0 2.22045e-16 1
    outer loop
      vertex -8.794 65.753 -1.43781e-14
      vertex -8.076 65.945 -1.44207e-14
      vertex -8.263 66.825 -1.46161e-14
    endloop
  endfacet
  facet normal 0 2.22045e-16 1
    outer loop
      vertex -8.263 66.825 -1.46161e-14
      vertex -8.076 65.945 -1.44207e-14
      vertex -7.436 66.956 -1.46452e-14
    endloop
  endfacet
  facet normal 0 2.22045e-16 1
    outer loop
      vertex -7.436 66.956 -1.46452e-14
      vertex -7.342 66.061 -1.44464e-14
      vertex -6.6 67 -1.46549e-14
    endloop
  endfacet
  facet normal 0 2.22045e-16 1
    outer loop
      vertex -7.342 66.061 -1.44464e-14
      vertex -6.6 66.1 -1.44551e-14
      vertex -6.6 67 -1.46549e-14
    endloop
  endfacet
  facet normal 0 2.22045e-16 1
    outer loop
      vertex -5.35 53.65 -1.16906e-14
      vertex -5.35 56.29 -1.22768e-14
      vertex -6.6 53.65 -1.16906e-14
    endloop
  endfacet
  facet normal 0 2.22045e-16 1
    outer loop
      vertex -6.6 66.1 -1.44551e-14
      vertex -5.35 56.29 -1.22768e-14
      vertex 1 67 -1.46549e-14
    endloop
  endfacet
  facet normal 0 2.22045e-16 1
    outer loop
      vertex -6.6 66.1 -1.44551e-14
      vertex -6.6 53.65 -1.16906e-14
      vertex -5.35 56.29 -1.22768e-14
    endloop
  endfacet
  facet normal 0 2.22045e-16 1
    outer loop
      vertex 1 67 -1.46549e-14
      vertex -3 16 -3.33067e-15
      vertex 1 1.18794e-14 2.22045e-16
    endloop
  endfacet
  facet normal 0 2.22045e-16 1
    outer loop
      vertex -4.1 16 -3.33067e-15
      vertex -6.6 16 -3.33067e-15
      vertex 1 1.18794e-14 2.22045e-16
    endloop
  endfacet
  facet normal 0 2.22045e-16 1
    outer loop
      vertex -4.1 17.2 -3.59712e-15
      vertex -6.6 16 -3.33067e-15
      vertex -4.1 16 -3.33067e-15
    endloop
  endfacet
  facet normal 0 2.22045e-16 1
    outer loop
      vertex -14.425 57.337 -1.25093e-14
      vertex -14.208 56.528 -1.23297e-14
      vertex -14.6 59 -1.28786e-14
    endloop
  endfacet
  facet normal 0 2.22045e-16 1
    outer loop
      vertex -13.072 54.298 -1.18345e-14
      vertex -12.545 53.647 -1.169e-14
      vertex -13.086 56.112 -1.22373e-14
    endloop
  endfacet
  facet normal 0 2.22045e-16 1
    outer loop
      vertex -12.545 53.647 -1.169e-14
      vertex -11.953 53.055 -1.15585e-14
      vertex -12.344 54.827 -1.1952e-14
    endloop
  endfacet
  facet normal 0 2.22045e-16 1
    outer loop
      vertex -11.302 52.528 -1.14415e-14
      vertex -10.6 52.072 -1.13403e-14
      vertex -10.773 53.256 -1.16032e-14
    endloop
  endfacet
  facet normal 0 2.22045e-16 1
    outer loop
      vertex -3 56.29 -1.22768e-14
      vertex -3 16 -3.33067e-15
      vertex 1 67 -1.46549e-14
    endloop
  endfacet
  facet normal 0 -1 2.22045e-16
    outer loop
      vertex 1 1.18794e-14 2.22045e-16
      vertex -6.6 1.18794e-14 2.22045e-16
      vertex -6.6 0 -53.5
    endloop
  endfacet
  facet normal 0 -1 2.22045e-16
    outer loop
      vertex 1 0 -53.5
      vertex 1 1.18794e-14 2.22045e-16
      vertex -6.6 0 -53.5
    endloop
  endfacet
  facet normal 0 -2.22045e-16 -1
    outer loop
      vertex -6.6 0 -53.5
      vertex -6.6 16 -53.5
      vertex 1 0 -53.5
    endloop
  endfacet
  facet normal 0 -2.22045e-16 -1
    outer loop
      vertex -4.1 16 -53.5
      vertex -6.6 16 -53.5
      vertex -4.1 17.2 -53.5
    endloop
  endfacet
  facet normal 0 -2.22045e-16 -1
    outer loop
      vertex 1 0 -53.5
      vertex -6.6 16 -53.5
      vertex -4.1 16 -53.5
    endloop
  endfacet
  facet normal 0 -2.22045e-16 -1
    outer loop
      vertex -6.6 53.65 -53.5
      vertex -5.35 56.29 -53.5
      vertex -5.35 53.65 -53.5
    endloop
  endfacet
  facet normal 0 -2.22045e-16 -1
    outer loop
      vertex 1 0 -53.5
      vertex -3 16 -53.5
      vertex -3 56.29 -53.5
    endloop
  endfacet
  facet normal 0 -2.22045e-16 -1
    outer loop
      vertex -5.35 56.29 -53.5
      vertex -6.6 53.65 -53.5
      vertex -6.6 66.1 -53.5
    endloop
  endfacet
  facet normal 0 -2.22045e-16 -1
    outer loop
      vertex -5.35 56.29 -53.5
      vertex -6.6 66.1 -53.5
      vertex -3 56.29 -53.5
    endloop
  endfacet
  facet normal 0 -2.22045e-16 -1
    outer loop
      vertex -7.342 51.939 -53.5
      vertex -7.436 51.044 -53.5
      vertex -8.076 52.055 -53.5
    endloop
  endfacet
  facet normal 0 -2.22045e-16 -1
    outer loop
      vertex -11.302 52.528 -53.5
      vertex -10.773 53.256 -53.5
      vertex -10.6 52.072 -53.5
    endloop
  endfacet
  facet normal 0 -2.22045e-16 -1
    outer loop
      vertex -11.302 52.528 -53.5
      vertex -11.351 53.724 -53.5
      vertex -10.773 53.256 -53.5
    endloop
  endfacet
  facet normal 0 -2.22045e-16 -1
    outer loop
      vertex -12.545 53.647 -53.5
      vertex -12.344 54.827 -53.5
      vertex -11.953 53.055 -53.5
    endloop
  endfacet
  facet normal 0 -2.22045e-16 -1
    outer loop
      vertex -11.876 54.249 -53.5
      vertex -11.953 53.055 -53.5
      vertex -12.344 54.827 -53.5
    endloop
  endfacet
  facet normal 0 -2.22045e-16 -1
    outer loop
      vertex -13.072 54.298 -53.5
      vertex -13.353 56.806 -53.5
      vertex -13.086 56.112 -53.5
    endloop
  endfacet
  facet normal 0 -2.22045e-16 -1
    outer loop
      vertex -12.344 54.827 -53.5
      vertex -12.545 53.647 -53.5
      vertex -12.749 55.45 -53.5
    endloop
  endfacet
  facet normal 0 -2.22045e-16 -1
    outer loop
      vertex -13.072 54.298 -53.5
      vertex -13.086 56.112 -53.5
      vertex -12.749 55.45 -53.5
    endloop
  endfacet
  facet normal 0 -2.22045e-16 -1
    outer loop
      vertex -10.15 52.851 -53.5
      vertex -10.6 52.072 -53.5
      vertex -10.773 53.256 -53.5
    endloop
  endfacet
  facet normal 0 -2.22045e-16 -1
    outer loop
      vertex -13.072 54.298 -53.5
      vertex -12.749 55.45 -53.5
      vertex -12.545 53.647 -53.5
    endloop
  endfacet
  facet normal 0 -2.22045e-16 -1
    outer loop
      vertex -8.794 52.247 -53.5
      vertex -9.072 51.392 -53.5
      vertex -9.488 52.514 -53.5
    endloop
  endfacet
  facet normal 0 -2.22045e-16 -1
    outer loop
      vertex -6.6 51.9 -53.5
      vertex -6.6 51 -53.5
      vertex -7.342 51.939 -53.5
    endloop
  endfacet
  facet normal 0 -2.22045e-16 -1
    outer loop
      vertex -6.6 51 -53.5
      vertex -4.1 51 -53.5
      vertex -4.1 49.8 -53.5
    endloop
  endfacet
  facet normal 0 -2.22045e-16 -1
    outer loop
      vertex -5.858 51.939 -53.5
      vertex -6.6 51 -53.5
      vertex -6.6 51.9 -53.5
    endloop
  endfacet
  facet normal 0 -2.22045e-16 -1
    outer loop
      vertex -13.353 56.806 -53.5
      vertex -13.072 54.298 -53.5
      vertex -13.545 57.524 -53.5
    endloop
  endfacet
  facet normal 0 -2.22045e-16 -1
    outer loop
      vertex -3.55 54.54 -53.5
      vertex -4.8 52.142 -53.5
      vertex -4.8 54.54 -53.5
    endloop
  endfacet
  facet normal 0 -2.22045e-16 -1
    outer loop
      vertex -6.6 51 -53.5
      vertex -4.8 52.142 -53.5
      vertex -4.1 51 -53.5
    endloop
  endfacet
  facet normal 0 -2.22045e-16 -1
    outer loop
      vertex -4.1 51 -53.5
      vertex -3.55 54.54 -53.5
      vertex -3.55 51 -53.5
    endloop
  endfacet
  facet normal 0 -2.22045e-16 -1
    outer loop
      vertex -3.55 54.54 -53.5
      vertex -4.1 51 -53.5
      vertex -4.8 52.142 -53.5
    endloop
  endfacet
  facet normal 0 -2.22045e-16 -1
    outer loop
      vertex -6.6 51 -53.5
      vertex -5.124 52.055 -53.5
      vertex -4.8 52.142 -53.5
    endloop
  endfacet
  facet normal 0 -2.22045e-16 -1
    outer loop
      vertex -6.6 51 -53.5
      vertex -5.858 51.939 -53.5
      vertex -5.124 52.055 -53.5
    endloop
  endfacet
  facet normal 0 -2.22045e-16 -1
    outer loop
      vertex -7.436 51.044 -53.5
      vertex -7.342 51.939 -53.5
      vertex -6.6 51 -53.5
    endloop
  endfacet
  facet normal 0 -2.22045e-16 -1
    outer loop
      vertex -8.263 51.175 -53.5
      vertex -8.076 52.055 -53.5
      vertex -7.436 51.044 -53.5
    endloop
  endfacet
  facet normal 0 -2.22045e-16 -1
    outer loop
      vertex -9.072 51.392 -53.5
      vertex -8.794 52.247 -53.5
      vertex -8.263 51.175 -53.5
    endloop
  endfacet
  facet normal 0 -2.22045e-16 -1
    outer loop
      vertex -8.076 52.055 -53.5
      vertex -8.263 51.175 -53.5
      vertex -8.794 52.247 -53.5
    endloop
  endfacet
  facet normal 0 -2.22045e-16 -1
    outer loop
      vertex -10.6 52.072 -53.5
      vertex -10.15 52.851 -53.5
      vertex -9.854 51.692 -53.5
    endloop
  endfacet
  facet normal 0 -2.22045e-16 -1
    outer loop
      vertex -9.854 51.692 -53.5
      vertex -9.488 52.514 -53.5
      vertex -9.072 51.392 -53.5
    endloop
  endfacet
  facet normal 0 -2.22045e-16 -1
    outer loop
      vertex -9.488 52.514 -53.5
      vertex -9.854 51.692 -53.5
      vertex -10.15 52.851 -53.5
    endloop
  endfacet
  facet normal 0 -2.22045e-16 -1
    outer loop
      vertex -11.953 53.055 -53.5
      vertex -11.876 54.249 -53.5
      vertex -11.302 52.528 -53.5
    endloop
  endfacet
  facet normal 0 -2.22045e-16 -1
    outer loop
      vertex -11.351 53.724 -53.5
      vertex -11.302 52.528 -53.5
      vertex -11.876 54.249 -53.5
    endloop
  endfacet
  facet normal 0 -2.22045e-16 -1
    outer loop
      vertex -13.528 55 -53.5
      vertex -13.661 58.258 -53.5
      vertex -13.545 57.524 -53.5
    endloop
  endfacet
  facet normal 0 -2.22045e-16 -1
    outer loop
      vertex -13.528 55 -53.5
      vertex -13.545 57.524 -53.5
      vertex -13.072 54.298 -53.5
    endloop
  endfacet
  facet normal 0 -2.22045e-16 -1
    outer loop
      vertex -13.661 58.258 -53.5
      vertex -13.528 55 -53.5
      vertex -13.7 59 -53.5
    endloop
  endfacet
  facet normal 0 -2.22045e-16 -1
    outer loop
      vertex -13.7 59 -53.5
      vertex -13.528 55 -53.5
      vertex -13.908 55.746 -53.5
    endloop
  endfacet
  facet normal 0 -2.22045e-16 -1
    outer loop
      vertex -13.7 59 -53.5
      vertex -13.908 55.746 -53.5
      vertex -13.661 59.742 -53.5
    endloop
  endfacet
  facet normal 0 -2.22045e-16 -1
    outer loop
      vertex -13.661 59.742 -53.5
      vertex -13.908 55.746 -53.5
      vertex -14.208 56.528 -53.5
    endloop
  endfacet
  facet normal 0 -2.22045e-16 -1
    outer loop
      vertex -13.661 59.742 -53.5
      vertex -14.208 56.528 -53.5
      vertex -13.545 60.476 -53.5
    endloop
  endfacet
  facet normal 0 -2.22045e-16 -1
    outer loop
      vertex -13.545 60.476 -53.5
      vertex -14.208 56.528 -53.5
      vertex -14.425 57.337 -53.5
    endloop
  endfacet
  facet normal 0 -2.22045e-16 -1
    outer loop
      vertex -13.545 60.476 -53.5
      vertex -14.425 57.337 -53.5
      vertex -13.353 61.194 -53.5
    endloop
  endfacet
  facet normal 0 -2.22045e-16 -1
    outer loop
      vertex -13.353 61.194 -53.5
      vertex -14.425 57.337 -53.5
      vertex -14.556 58.164 -53.5
    endloop
  endfacet
  facet normal 0 -2.22045e-16 -1
    outer loop
      vertex -13.353 61.194 -53.5
      vertex -14.556 58.164 -53.5
      vertex -13.086 61.888 -53.5
    endloop
  endfacet
  facet normal 0 -2.22045e-16 -1
    outer loop
      vertex -13.086 61.888 -53.5
      vertex -14.556 58.164 -53.5
      vertex -14.6 59 -53.5
    endloop
  endfacet
  facet normal 0 -2.22045e-16 -1
    outer loop
      vertex -13.086 61.888 -53.5
      vertex -14.6 59 -53.5
      vertex -12.749 62.55 -53.5
    endloop
  endfacet
  facet normal 0 -2.22045e-16 -1
    outer loop
      vertex -12.749 62.55 -53.5
      vertex -14.6 59 -53.5
      vertex -14.556 59.836 -53.5
    endloop
  endfacet
  facet normal 0 -2.22045e-16 -1
    outer loop
      vertex -12.749 62.55 -53.5
      vertex -14.556 59.836 -53.5
      vertex -12.344 63.173 -53.5
    endloop
  endfacet
  facet normal 0 -2.22045e-16 -1
    outer loop
      vertex -12.344 63.173 -53.5
      vertex -14.556 59.836 -53.5
      vertex -14.425 60.663 -53.5
    endloop
  endfacet
  facet normal 0 -2.22045e-16 -1
    outer loop
      vertex -12.344 63.173 -53.5
      vertex -14.425 60.663 -53.5
      vertex -11.876 63.751 -53.5
    endloop
  endfacet
  facet normal 0 -2.22045e-16 -1
    outer loop
      vertex -11.876 63.751 -53.5
      vertex -14.425 60.663 -53.5
      vertex -14.208 61.472 -53.5
    endloop
  endfacet
  facet normal 0 -2.22045e-16 -1
    outer loop
      vertex -11.876 63.751 -53.5
      vertex -14.208 61.472 -53.5
      vertex -11.351 64.276 -53.5
    endloop
  endfacet
  facet normal 0 -2.22045e-16 -1
    outer loop
      vertex -11.351 64.276 -53.5
      vertex -14.208 61.472 -53.5
      vertex -13.908 62.254 -53.5
    endloop
  endfacet
  facet normal 0 -2.22045e-16 -1
    outer loop
      vertex -11.351 64.276 -53.5
      vertex -13.908 62.254 -53.5
      vertex -10.773 64.744 -53.5
    endloop
  endfacet
  facet normal 0 -2.22045e-16 -1
    outer loop
      vertex -10.773 64.744 -53.5
      vertex -13.908 62.254 -53.5
      vertex -13.528 63 -53.5
    endloop
  endfacet
  facet normal 0 -2.22045e-16 -1
    outer loop
      vertex -10.773 64.744 -53.5
      vertex -13.528 63 -53.5
      vertex -10.15 65.149 -53.5
    endloop
  endfacet
  facet normal 0 -2.22045e-16 -1
    outer loop
      vertex -10.15 65.149 -53.5
      vertex -13.528 63 -53.5
      vertex -13.072 63.702 -53.5
    endloop
  endfacet
  facet normal 0 -2.22045e-16 -1
    outer loop
      vertex -10.15 65.149 -53.5
      vertex -13.072 63.702 -53.5
      vertex -9.488 65.486 -53.5
    endloop
  endfacet
  facet normal 0 -2.22045e-16 -1
    outer loop
      vertex -9.488 65.486 -53.5
      vertex -13.072 63.702 -53.5
      vertex -12.545 64.353 -53.5
    endloop
  endfacet
  facet normal 0 -2.22045e-16 -1
    outer loop
      vertex -9.488 65.486 -53.5
      vertex -12.545 64.353 -53.5
      vertex -8.794 65.753 -53.5
    endloop
  endfacet
  facet normal 0 -2.22045e-16 -1
    outer loop
      vertex -8.794 65.753 -53.5
      vertex -12.545 64.353 -53.5
      vertex -11.953 64.945 -53.5
    endloop
  endfacet
  facet normal 0 -2.22045e-16 -1
    outer loop
      vertex -8.794 65.753 -53.5
      vertex -11.953 64.945 -53.5
      vertex -8.076 65.945 -53.5
    endloop
  endfacet
  facet normal 0 -2.22045e-16 -1
    outer loop
      vertex -8.076 65.945 -53.5
      vertex -11.953 64.945 -53.5
      vertex -11.302 65.472 -53.5
    endloop
  endfacet
  facet normal 0 -2.22045e-16 -1
    outer loop
      vertex -8.076 65.945 -53.5
      vertex -11.302 65.472 -53.5
      vertex -7.342 66.061 -53.5
    endloop
  endfacet
  facet normal 0 -2.22045e-16 -1
    outer loop
      vertex -7.342 66.061 -53.5
      vertex -11.302 65.472 -53.5
      vertex -10.6 65.928 -53.5
    endloop
  endfacet
  facet normal 0 -2.22045e-16 -1
    outer loop
      vertex -7.342 66.061 -53.5
      vertex -10.6 65.928 -53.5
      vertex -6.6 66.1 -53.5
    endloop
  endfacet
  facet normal 0 -2.22045e-16 -1
    outer loop
      vertex -6.6 66.1 -53.5
      vertex -10.6 65.928 -53.5
      vertex -9.854 66.308 -53.5
    endloop
  endfacet
  facet normal 0 -2.22045e-16 -1
    outer loop
      vertex -6.6 66.1 -53.5
      vertex -9.854 66.308 -53.5
      vertex -9.072 66.608 -53.5
    endloop
  endfacet
  facet normal 0 -2.22045e-16 -1
    outer loop
      vertex -6.6 66.1 -53.5
      vertex -9.072 66.608 -53.5
      vertex -8.263 66.825 -53.5
    endloop
  endfacet
  facet normal 0 -2.22045e-16 -1
    outer loop
      vertex -6.6 66.1 -53.5
      vertex -8.263 66.825 -53.5
      vertex -7.436 66.956 -53.5
    endloop
  endfacet
  facet normal 0 -2.22045e-16 -1
    outer loop
      vertex -6.6 66.1 -53.5
      vertex -7.436 66.956 -53.5
      vertex -6.6 67 -53.5
    endloop
  endfacet
  facet normal 0 -2.22045e-16 -1
    outer loop
      vertex -6.6 66.1 -53.5
      vertex -6.6 67 -53.5
      vertex -3 56.29 -53.5
    endloop
  endfacet
  facet normal 0 -2.22045e-16 -1
    outer loop
      vertex -3 56.29 -53.5
      vertex -6.6 67 -53.5
      vertex 1 67 -53.5
    endloop
  endfacet
  facet normal 0 -2.22045e-16 -1
    outer loop
      vertex -3 56.29 -53.5
      vertex 1 67 -53.5
      vertex 1 0 -53.5
    endloop
  endfacet
  facet normal 0 -2.22045e-16 -1
    outer loop
      vertex -3 16 -53.5
      vertex 1 0 -53.5
      vertex -4.1 16 -53.5
    endloop
  endfacet
  facet normal -0.432731 0.901523 -2.00178e-16
    outer loop
      vertex -6.6 16 -3.33067e-15
      vertex -4.1 17.2 -3.59712e-15
      vertex -6.6 16 -53.5
    endloop
  endfacet
  facet normal -0.432731 0.901523 -2.00178e-16
    outer loop
      vertex -6.6 16 -53.5
      vertex -4.1 17.2 -3.59712e-15
      vertex -4.1 17.2 -53.5
    endloop
  endfacet
  facet normal 1 -4.93038e-32 1.09476e-47
    outer loop
      vertex -4.1 17.2 -3.59712e-15
      vertex -4.1 16 -3.33067e-15
      vertex -4.1 16 -53.5
    endloop
  endfacet
  facet normal 1 -4.93038e-32 1.09476e-47
    outer loop
      vertex -4.1 17.2 -53.5
      vertex -4.1 17.2 -3.59712e-15
      vertex -4.1 16 -53.5
    endloop
  endfacet
  facet normal 0 1 -2.22045e-16
    outer loop
      vertex -4.1 16 -3.33067e-15
      vertex -3 16 -3.33067e-15
      vertex -4.1 16 -53.5
    endloop
  endfacet
  facet normal 0 1 -2.22045e-16
    outer loop
      vertex -4.1 16 -53.5
      vertex -3 16 -3.33067e-15
      vertex -3 16 -53.5
    endloop
  endfacet
  facet normal -1 4.93038e-32 -1.09476e-47
    outer loop
      vertex -3 16 -3.33067e-15
      vertex -3 56.29 -1.22768e-14
      vertex -3 16 -53.5
    endloop
  endfacet
  facet normal -1 4.93038e-32 -1.09476e-47
    outer loop
      vertex -3 16 -53.5
      vertex -3 56.29 -1.22768e-14
      vertex -3 56.29 -53.5
    endloop
  endfacet
  facet normal 0 -1 2.22045e-16
    outer loop
      vertex -3 56.29 -1.22768e-14
      vertex -5.35 56.29 -1.22768e-14
      vertex -5.35 56.29 -53.5
    endloop
  endfacet
  facet normal 0 -1 2.22045e-16
    outer loop
      vertex -3 56.29 -53.5
      vertex -3 56.29 -1.22768e-14
      vertex -5.35 56.29 -53.5
    endloop
  endfacet
  facet normal 1 -4.93038e-32 1.09476e-47
    outer loop
      vertex -5.35 56.29 -1.22768e-14
      vertex -5.35 53.65 -1.16906e-14
      vertex -5.35 53.65 -53.5
    endloop
  endfacet
  facet normal 1 -4.93038e-32 1.09476e-47
    outer loop
      vertex -5.35 56.29 -53.5
      vertex -5.35 56.29 -1.22768e-14
      vertex -5.35 53.65 -53.5
    endloop
  endfacet
  facet normal 0 -1 2.22045e-16
    outer loop
      vertex -5.35 53.65 -1.16906e-14
      vertex -6.6 53.65 -1.16906e-14
      vertex -6.6 53.65 -53.5
    endloop
  endfacet
  facet normal 0 -1 2.22045e-16
    outer loop
      vertex -5.35 53.65 -53.5
      vertex -5.35 53.65 -1.16906e-14
      vertex -6.6 53.65 -53.5
    endloop
  endfacet
  facet normal -1 4.93038e-32 -1.09476e-47
    outer loop
      vertex -6.6 53.65 -1.16906e-14
      vertex -6.6 66.1 -1.44551e-14
      vertex -6.6 53.65 -53.5
    endloop
  endfacet
  facet normal -1 4.93038e-32 -1.09476e-47
    outer loop
      vertex -6.6 53.65 -53.5
      vertex -6.6 66.1 -1.44551e-14
      vertex -6.6 66.1 -53.5
    endloop
  endfacet
  facet normal 0.0524882 -0.998622 2.21739e-16
    outer loop
      vertex -6.6 66.1 -1.44551e-14
      vertex -7.342 66.061 -1.44464e-14
      vertex -7.342 66.061 -53.5
    endloop
  endfacet
  facet normal 0.0524882 -0.998622 2.21739e-16
    outer loop
      vertex -6.6 66.1 -53.5
      vertex -6.6 66.1 -1.44551e-14
      vertex -7.342 66.061 -53.5
    endloop
  endfacet
  facet normal 0.156101 -0.987741 2.19323e-16
    outer loop
      vertex -7.342 66.061 -1.44464e-14
      vertex -8.076 65.945 -1.44207e-14
      vertex -8.076 65.945 -53.5
    endloop
  endfacet
  facet normal 0.156101 -0.987741 2.19323e-16
    outer loop
      vertex -7.342 66.061 -53.5
      vertex -7.342 66.061 -1.44464e-14
      vertex -8.076 65.945 -53.5
    endloop
  endfacet
  facet normal 0.258333 -0.966056 2.14508e-16
    outer loop
      vertex -8.076 65.945 -1.44207e-14
      vertex -8.794 65.753 -1.43781e-14
      vertex -8.794 65.753 -53.5
    endloop
  endfacet
  facet normal 0.258333 -0.966056 2.14508e-16
    outer loop
      vertex -8.076 65.945 -53.5
      vertex -8.076 65.945 -1.44207e-14
      vertex -8.794 65.753 -53.5
    endloop
  endfacet
  facet normal 0.359069 -0.933311 2.07237e-16
    outer loop
      vertex -8.794 65.753 -1.43781e-14
      vertex -9.488 65.486 -1.43188e-14
      vertex -9.488 65.486 -53.5
    endloop
  endfacet
  facet normal 0.359069 -0.933311 2.07237e-16
    outer loop
      vertex -8.794 65.753 -53.5
      vertex -8.794 65.753 -1.43781e-14
      vertex -9.488 65.486 -53.5
    endloop
  endfacet
  facet normal 0.453664 -0.891173 1.9788e-16
    outer loop
      vertex -9.488 65.486 -1.43188e-14
      vertex -10.15 65.149 -1.42439e-14
      vertex -10.15 65.149 -53.5
    endloop
  endfacet
  facet normal 0.453664 -0.891173 1.9788e-16
    outer loop
      vertex -9.488 65.486 -53.5
      vertex -9.488 65.486 -1.43188e-14
      vertex -10.15 65.149 -53.5
    endloop
  endfacet
  facet normal 0.545036 -0.838413 1.86165e-16
    outer loop
      vertex -10.15 65.149 -1.42439e-14
      vertex -10.773 64.744 -1.4154e-14
      vertex -10.773 64.744 -53.5
    endloop
  endfacet
  facet normal 0.545036 -0.838413 1.86165e-16
    outer loop
      vertex -10.15 65.149 -53.5
      vertex -10.15 65.149 -1.42439e-14
      vertex -10.773 64.744 -53.5
    endloop
  endfacet
  facet normal 0.629276 -0.777182 1.72569e-16
    outer loop
      vertex -10.773 64.744 -1.4154e-14
      vertex -11.351 64.276 -1.40501e-14
      vertex -11.351 64.276 -53.5
    endloop
  endfacet
  facet normal 0.629276 -0.777182 1.72569e-16
    outer loop
      vertex -10.773 64.744 -53.5
      vertex -10.773 64.744 -1.4154e-14
      vertex -11.351 64.276 -53.5
    endloop
  endfacet
  facet normal 0.707107 -0.707107 1.57009e-16
    outer loop
      vertex -11.351 64.276 -1.40501e-14
      vertex -11.876 63.751 -1.39335e-14
      vertex -11.876 63.751 -53.5
    endloop
  endfacet
  facet normal 0.707107 -0.707107 1.57009e-16
    outer loop
      vertex -11.351 64.276 -53.5
      vertex -11.351 64.276 -1.40501e-14
      vertex -11.876 63.751 -53.5
    endloop
  endfacet
  facet normal 0.777182 -0.629276 1.39727e-16
    outer loop
      vertex -11.876 63.751 -1.39335e-14
      vertex -12.344 63.173 -1.38052e-14
      vertex -12.344 63.173 -53.5
    endloop
  endfacet
  facet normal 0.777182 -0.629276 1.39727e-16
    outer loop
      vertex -11.876 63.751 -53.5
      vertex -11.876 63.751 -1.39335e-14
      vertex -12.344 63.173 -53.5
    endloop
  endfacet
  facet normal 0.838413 -0.545036 1.21022e-16
    outer loop
      vertex -12.344 63.173 -1.38052e-14
      vertex -12.749 62.55 -1.36668e-14
      vertex -12.749 62.55 -53.5
    endloop
  endfacet
  facet normal 0.838413 -0.545036 1.21022e-16
    outer loop
      vertex -12.344 63.173 -53.5
      vertex -12.344 63.173 -1.38052e-14
      vertex -12.749 62.55 -53.5
    endloop
  endfacet
  facet normal 0.891173 -0.453664 1.00734e-16
    outer loop
      vertex -12.749 62.55 -1.36668e-14
      vertex -13.086 61.888 -1.35199e-14
      vertex -13.086 61.888 -53.5
    endloop
  endfacet
  facet normal 0.891173 -0.453664 1.00734e-16
    outer loop
      vertex -12.749 62.55 -53.5
      vertex -12.749 62.55 -1.36668e-14
      vertex -13.086 61.888 -53.5
    endloop
  endfacet
  facet normal 0.933311 -0.359069 7.97294e-17
    outer loop
      vertex -13.086 61.888 -1.35199e-14
      vertex -13.353 61.194 -1.33658e-14
      vertex -13.353 61.194 -53.5
    endloop
  endfacet
  facet normal 0.933311 -0.359069 7.97294e-17
    outer loop
      vertex -13.086 61.888 -53.5
      vertex -13.086 61.888 -1.35199e-14
      vertex -13.353 61.194 -53.5
    endloop
  endfacet
  facet normal 0.966056 -0.258333 5.73613e-17
    outer loop
      vertex -13.353 61.194 -1.33658e-14
      vertex -13.545 60.476 -1.32063e-14
      vertex -13.545 60.476 -53.5
    endloop
  endfacet
  facet normal 0.966056 -0.258333 5.73613e-17
    outer loop
      vertex -13.353 61.194 -53.5
      vertex -13.353 61.194 -1.33658e-14
      vertex -13.545 60.476 -53.5
    endloop
  endfacet
  facet normal 0.987741 -0.156101 3.46613e-17
    outer loop
      vertex -13.545 60.476 -1.32063e-14
      vertex -13.661 59.742 -1.30433e-14
      vertex -13.661 59.742 -53.5
    endloop
  endfacet
  facet normal 0.987741 -0.156101 3.46613e-17
    outer loop
      vertex -13.545 60.476 -53.5
      vertex -13.545 60.476 -1.32063e-14
      vertex -13.661 59.742 -53.5
    endloop
  endfacet
  facet normal 0.998622 -0.0524882 1.16547e-17
    outer loop
      vertex -13.661 59.742 -1.30433e-14
      vertex -13.7 59 -1.28786e-14
      vertex -13.7 59 -53.5
    endloop
  endfacet
  facet normal 0.998622 -0.0524882 1.16547e-17
    outer loop
      vertex -13.661 59.742 -53.5
      vertex -13.661 59.742 -1.30433e-14
      vertex -13.7 59 -53.5
    endloop
  endfacet
  facet normal 0.998622 0.0524882 -1.16547e-17
    outer loop
      vertex -13.7 59 -1.28786e-14
      vertex -13.661 58.258 -1.27138e-14
      vertex -13.661 58.258 -53.5
    endloop
  endfacet
  facet normal 0.998622 0.0524882 -1.16547e-17
    outer loop
      vertex -13.7 59 -53.5
      vertex -13.7 59 -1.28786e-14
      vertex -13.661 58.258 -53.5
    endloop
  endfacet
  facet normal 0.987741 0.156101 -3.46613e-17
    outer loop
      vertex -13.661 58.258 -1.27138e-14
      vertex -13.545 57.524 -1.25508e-14
      vertex -13.545 57.524 -53.5
    endloop
  endfacet
  facet normal 0.987741 0.156101 -3.46613e-17
    outer loop
      vertex -13.661 58.258 -53.5
      vertex -13.661 58.258 -1.27138e-14
      vertex -13.545 57.524 -53.5
    endloop
  endfacet
  facet normal 0.966056 0.258333 -5.73613e-17
    outer loop
      vertex -13.545 57.524 -1.25508e-14
      vertex -13.353 56.806 -1.23914e-14
      vertex -13.353 56.806 -53.5
    endloop
  endfacet
  facet normal 0.966056 0.258333 -5.73613e-17
    outer loop
      vertex -13.545 57.524 -53.5
      vertex -13.545 57.524 -1.25508e-14
      vertex -13.353 56.806 -53.5
    endloop
  endfacet
  facet normal 0.933311 0.359069 -7.97294e-17
    outer loop
      vertex -13.353 56.806 -1.23914e-14
      vertex -13.086 56.112 -1.22373e-14
      vertex -13.086 56.112 -53.5
    endloop
  endfacet
  facet normal 0.933311 0.359069 -7.97294e-17
    outer loop
      vertex -13.353 56.806 -53.5
      vertex -13.353 56.806 -1.23914e-14
      vertex -13.086 56.112 -53.5
    endloop
  endfacet
  facet normal 0.891173 0.453664 -1.00734e-16
    outer loop
      vertex -13.086 56.112 -1.22373e-14
      vertex -12.749 55.45 -1.20903e-14
      vertex -12.749 55.45 -53.5
    endloop
  endfacet
  facet normal 0.891173 0.453664 -1.00734e-16
    outer loop
      vertex -13.086 56.112 -53.5
      vertex -13.086 56.112 -1.22373e-14
      vertex -12.749 55.45 -53.5
    endloop
  endfacet
  facet normal 0.838413 0.545036 -1.21022e-16
    outer loop
      vertex -12.749 55.45 -1.20903e-14
      vertex -12.344 54.827 -1.1952e-14
      vertex -12.344 54.827 -53.5
    endloop
  endfacet
  facet normal 0.838413 0.545036 -1.21022e-16
    outer loop
      vertex -12.749 55.45 -53.5
      vertex -12.749 55.45 -1.20903e-14
      vertex -12.344 54.827 -53.5
    endloop
  endfacet
  facet normal 0.777182 0.629276 -1.39727e-16
    outer loop
      vertex -12.344 54.827 -1.1952e-14
      vertex -11.876 54.249 -1.18237e-14
      vertex -11.876 54.249 -53.5
    endloop
  endfacet
  facet normal 0.777182 0.629276 -1.39727e-16
    outer loop
      vertex -12.344 54.827 -53.5
      vertex -12.344 54.827 -1.1952e-14
      vertex -11.876 54.249 -53.5
    endloop
  endfacet
  facet normal 0.707107 0.707107 -1.57009e-16
    outer loop
      vertex -11.876 54.249 -1.18237e-14
      vertex -11.351 53.724 -1.17071e-14
      vertex -11.876 54.249 -53.5
    endloop
  endfacet
  facet normal 0.707107 0.707107 -1.57009e-16
    outer loop
      vertex -11.876 54.249 -53.5
      vertex -11.351 53.724 -1.17071e-14
      vertex -11.351 53.724 -53.5
    endloop
  endfacet
  facet normal 0.629276 0.777182 -1.72569e-16
    outer loop
      vertex -11.351 53.724 -1.17071e-14
      vertex -10.773 53.256 -1.16032e-14
      vertex -11.351 53.724 -53.5
    endloop
  endfacet
  facet normal 0.629276 0.777182 -1.72569e-16
    outer loop
      vertex -11.351 53.724 -53.5
      vertex -10.773 53.256 -1.16032e-14
      vertex -10.773 53.256 -53.5
    endloop
  endfacet
  facet normal 0.545036 0.838413 -1.86165e-16
    outer loop
      vertex -10.773 53.256 -1.16032e-14
      vertex -10.15 52.851 -1.15132e-14
      vertex -10.773 53.256 -53.5
    endloop
  endfacet
  facet normal 0.545036 0.838413 -1.86165e-16
    outer loop
      vertex -10.773 53.256 -53.5
      vertex -10.15 52.851 -1.15132e-14
      vertex -10.15 52.851 -53.5
    endloop
  endfacet
  facet normal 0.453664 0.891173 -1.9788e-16
    outer loop
      vertex -10.15 52.851 -1.15132e-14
      vertex -9.488 52.514 -1.14384e-14
      vertex -10.15 52.851 -53.5
    endloop
  endfacet
  facet normal 0.453664 0.891173 -1.9788e-16
    outer loop
      vertex -10.15 52.851 -53.5
      vertex -9.488 52.514 -1.14384e-14
      vertex -9.488 52.514 -53.5
    endloop
  endfacet
  facet normal 0.359069 0.933311 -2.07237e-16
    outer loop
      vertex -9.488 52.514 -1.14384e-14
      vertex -8.794 52.247 -1.13791e-14
      vertex -9.488 52.514 -53.5
    endloop
  endfacet
  facet normal 0.359069 0.933311 -2.07237e-16
    outer loop
      vertex -9.488 52.514 -53.5
      vertex -8.794 52.247 -1.13791e-14
      vertex -8.794 52.247 -53.5
    endloop
  endfacet
  facet normal 0.258333 0.966056 -2.14508e-16
    outer loop
      vertex -8.794 52.247 -1.13791e-14
      vertex -8.076 52.055 -1.13365e-14
      vertex -8.794 52.247 -53.5
    endloop
  endfacet
  facet normal 0.258333 0.966056 -2.14508e-16
    outer loop
      vertex -8.794 52.247 -53.5
      vertex -8.076 52.055 -1.13365e-14
      vertex -8.076 52.055 -53.5
    endloop
  endfacet
  facet normal 0.156101 0.987741 -2.19323e-16
    outer loop
      vertex -8.076 52.055 -1.13365e-14
      vertex -7.342 51.939 -1.13107e-14
      vertex -8.076 52.055 -53.5
    endloop
  endfacet
  facet normal 0.156101 0.987741 -2.19323e-16
    outer loop
      vertex -8.076 52.055 -53.5
      vertex -7.342 51.939 -1.13107e-14
      vertex -7.342 51.939 -53.5
    endloop
  endfacet
  facet normal 0.0524882 0.998622 -2.21739e-16
    outer loop
      vertex -7.342 51.939 -1.13107e-14
      vertex -6.6 51.9 -1.13021e-14
      vertex -7.342 51.939 -53.5
    endloop
  endfacet
  facet normal 0.0524882 0.998622 -2.21739e-16
    outer loop
      vertex -7.342 51.939 -53.5
      vertex -6.6 51.9 -1.13021e-14
      vertex -6.6 51.9 -53.5
    endloop
  endfacet
  facet normal -0.0524882 0.998622 -2.21739e-16
    outer loop
      vertex -6.6 51.9 -1.13021e-14
      vertex -5.858 51.939 -1.13107e-14
      vertex -6.6 51.9 -53.5
    endloop
  endfacet
  facet normal -0.0524882 0.998622 -2.21739e-16
    outer loop
      vertex -6.6 51.9 -53.5
      vertex -5.858 51.939 -1.13107e-14
      vertex -5.858 51.939 -53.5
    endloop
  endfacet
  facet normal -0.156101 0.987741 -2.19323e-16
    outer loop
      vertex -5.858 51.939 -1.13107e-14
      vertex -5.124 52.055 -1.13365e-14
      vertex -5.858 51.939 -53.5
    endloop
  endfacet
  facet normal -0.156101 0.987741 -2.19323e-16
    outer loop
      vertex -5.858 51.939 -53.5
      vertex -5.124 52.055 -1.13365e-14
      vertex -5.124 52.055 -53.5
    endloop
  endfacet
  facet normal -0.259332 0.965788 -2.14448e-16
    outer loop
      vertex -5.124 52.055 -1.13365e-14
      vertex -4.8 52.142 -1.13558e-14
      vertex -5.124 52.055 -53.5
    endloop
  endfacet
  facet normal -0.259332 0.965788 -2.14448e-16
    outer loop
      vertex -5.124 52.055 -53.5
      vertex -4.8 52.142 -1.13558e-14
      vertex -4.8 52.142 -53.5
    endloop
  endfacet
  facet normal -1 4.93038e-32 -1.09476e-47
    outer loop
      vertex -4.8 52.142 -1.13558e-14
      vertex -4.8 54.54 -1.18883e-14
      vertex -4.8 52.142 -53.5
    endloop
  endfacet
  facet normal -1 4.93038e-32 -1.09476e-47
    outer loop
      vertex -4.8 52.142 -53.5
      vertex -4.8 54.54 -1.18883e-14
      vertex -4.8 54.54 -53.5
    endloop
  endfacet
  facet normal 0 1 -2.22045e-16
    outer loop
      vertex -4.8 54.54 -1.18883e-14
      vertex -3.55 54.54 -1.18883e-14
      vertex -4.8 54.54 -53.5
    endloop
  endfacet
  facet normal 0 1 -2.22045e-16
    outer loop
      vertex -4.8 54.54 -53.5
      vertex -3.55 54.54 -1.18883e-14
      vertex -3.55 54.54 -53.5
    endloop
  endfacet
  facet normal 1 -4.93038e-32 1.09476e-47
    outer loop
      vertex -3.55 54.54 -1.18883e-14
      vertex -3.55 51 -1.11022e-14
      vertex -3.55 51 -53.5
    endloop
  endfacet
  facet normal 1 -4.93038e-32 1.09476e-47
    outer loop
      vertex -3.55 54.54 -53.5
      vertex -3.55 54.54 -1.18883e-14
      vertex -3.55 51 -53.5
    endloop
  endfacet
  facet normal 0 -1 2.22045e-16
    outer loop
      vertex -3.55 51 -1.11022e-14
      vertex -4.1 51 -1.11022e-14
      vertex -4.1 51 -53.5
    endloop
  endfacet
  facet normal 0 -1 2.22045e-16
    outer loop
      vertex -3.55 51 -53.5
      vertex -3.55 51 -1.11022e-14
      vertex -4.1 51 -53.5
    endloop
  endfacet
  facet normal 1 -4.93038e-32 1.09476e-47
    outer loop
      vertex -4.1 51 -1.11022e-14
      vertex -4.1 49.8 -1.08358e-14
      vertex -4.1 49.8 -53.5
    endloop
  endfacet
  facet normal 1 -4.93038e-32 1.09476e-47
    outer loop
      vertex -4.1 51 -53.5
      vertex -4.1 51 -1.11022e-14
      vertex -4.1 49.8 -53.5
    endloop
  endfacet
  facet normal -0.432731 -0.901523 2.00178e-16
    outer loop
      vertex -4.1 49.8 -1.08358e-14
      vertex -6.6 51 -1.11022e-14
      vertex -6.6 51 -53.5
    endloop
  endfacet
  facet normal -0.432731 -0.901523 2.00178e-16
    outer loop
      vertex -4.1 49.8 -53.5
      vertex -4.1 49.8 -1.08358e-14
      vertex -6.6 51 -53.5
    endloop
  endfacet
  facet normal -0.0525588 -0.998618 2.21738e-16
    outer loop
      vertex -6.6 51 -1.11022e-14
      vertex -7.436 51.044 -1.1112e-14
      vertex -7.436 51.044 -53.5
    endloop
  endfacet
  facet normal -0.0525588 -0.998618 2.21738e-16
    outer loop
      vertex -6.6 51 -53.5
      vertex -6.6 51 -1.11022e-14
      vertex -7.436 51.044 -53.5
    endloop
  endfacet
  facet normal -0.156453 -0.987685 2.1931e-16
    outer loop
      vertex -7.436 51.044 -1.1112e-14
      vertex -8.263 51.175 -1.11411e-14
      vertex -8.263 51.175 -53.5
    endloop
  endfacet
  facet normal -0.156453 -0.987685 2.1931e-16
    outer loop
      vertex -7.436 51.044 -53.5
      vertex -7.436 51.044 -1.1112e-14
      vertex -8.263 51.175 -53.5
    endloop
  endfacet
  facet normal -0.259074 -0.965857 2.14463e-16
    outer loop
      vertex -8.263 51.175 -1.11411e-14
      vertex -9.072 51.392 -1.11893e-14
      vertex -9.072 51.392 -53.5
    endloop
  endfacet
  facet normal -0.259074 -0.965857 2.14463e-16
    outer loop
      vertex -8.263 51.175 -53.5
      vertex -8.263 51.175 -1.11411e-14
      vertex -9.072 51.392 -53.5
    endloop
  endfacet
  facet normal -0.358179 -0.933653 2.07313e-16
    outer loop
      vertex -9.072 51.392 -1.11893e-14
      vertex -9.854 51.692 -1.12559e-14
      vertex -9.854 51.692 -53.5
    endloop
  endfacet
  facet normal -0.358179 -0.933653 2.07313e-16
    outer loop
      vertex -9.072 51.392 -53.5
      vertex -9.072 51.392 -1.11893e-14
      vertex -9.854 51.692 -53.5
    endloop
  endfacet
  facet normal -0.45389 -0.891058 1.97855e-16
    outer loop
      vertex -9.854 51.692 -1.12559e-14
      vertex -10.6 52.072 -1.13403e-14
      vertex -10.6 52.072 -53.5
    endloop
  endfacet
  facet normal -0.45389 -0.891058 1.97855e-16
    outer loop
      vertex -9.854 51.692 -53.5
      vertex -9.854 51.692 -1.12559e-14
      vertex -10.6 52.072 -53.5
    endloop
  endfacet
  facet normal -0.544736 -0.838607 1.86208e-16
    outer loop
      vertex -10.6 52.072 -1.13403e-14
      vertex -11.302 52.528 -1.14415e-14
      vertex -11.302 52.528 -53.5
    endloop
  endfacet
  facet normal -0.544736 -0.838607 1.86208e-16
    outer loop
      vertex -10.6 52.072 -53.5
      vertex -10.6 52.072 -1.13403e-14
      vertex -11.302 52.528 -53.5
    endloop
  endfacet
  facet normal -0.629198 -0.777245 1.72583e-16
    outer loop
      vertex -11.302 52.528 -1.14415e-14
      vertex -11.953 53.055 -1.15585e-14
      vertex -11.953 53.055 -53.5
    endloop
  endfacet
  facet normal -0.629198 -0.777245 1.72583e-16
    outer loop
      vertex -11.302 52.528 -53.5
      vertex -11.302 52.528 -1.14415e-14
      vertex -11.953 53.055 -53.5
    endloop
  endfacet
  facet normal -0.707107 -0.707107 1.57009e-16
    outer loop
      vertex -11.953 53.055 -1.15585e-14
      vertex -12.545 53.647 -1.169e-14
      vertex -12.545 53.647 -53.5
    endloop
  endfacet
  facet normal -0.707107 -0.707107 1.57009e-16
    outer loop
      vertex -11.953 53.055 -53.5
      vertex -11.953 53.055 -1.15585e-14
      vertex -12.545 53.647 -53.5
    endloop
  endfacet
  facet normal -0.777245 -0.629198 1.3971e-16
    outer loop
      vertex -12.545 53.647 -1.169e-14
      vertex -13.072 54.298 -1.18345e-14
      vertex -12.545 53.647 -53.5
    endloop
  endfacet
  facet normal -0.777245 -0.629198 1.3971e-16
    outer loop
      vertex -12.545 53.647 -53.5
      vertex -13.072 54.298 -1.18345e-14
      vertex -13.072 54.298 -53.5
    endloop
  endfacet
  facet normal -0.838607 -0.544736 1.20956e-16
    outer loop
      vertex -13.072 54.298 -1.18345e-14
      vertex -13.528 55 -1.19904e-14
      vertex -13.072 54.298 -53.5
    endloop
  endfacet
  facet normal -0.838607 -0.544736 1.20956e-16
    outer loop
      vertex -13.072 54.298 -53.5
      vertex -13.528 55 -1.19904e-14
      vertex -13.528 55 -53.5
    endloop
  endfacet
  facet normal -0.891058 -0.45389 1.00784e-16
    outer loop
      vertex -13.528 55 -1.19904e-14
      vertex -13.908 55.746 -1.21561e-14
      vertex -13.528 55 -53.5
    endloop
  endfacet
  facet normal -0.891058 -0.45389 1.00784e-16
    outer loop
      vertex -13.528 55 -53.5
      vertex -13.908 55.746 -1.21561e-14
      vertex -13.908 55.746 -53.5
    endloop
  endfacet
  facet normal -0.933653 -0.358179 7.95317e-17
    outer loop
      vertex -13.908 55.746 -1.21561e-14
      vertex -14.208 56.528 -1.23297e-14
      vertex -13.908 55.746 -53.5
    endloop
  endfacet
  facet normal -0.933653 -0.358179 7.95317e-17
    outer loop
      vertex -13.908 55.746 -53.5
      vertex -14.208 56.528 -1.23297e-14
      vertex -14.208 56.528 -53.5
    endloop
  endfacet
  facet normal -0.965857 -0.259074 5.7526e-17
    outer loop
      vertex -14.208 56.528 -1.23297e-14
      vertex -14.425 57.337 -1.25093e-14
      vertex -14.208 56.528 -53.5
    endloop
  endfacet
  facet normal -0.965857 -0.259074 5.7526e-17
    outer loop
      vertex -14.208 56.528 -53.5
      vertex -14.425 57.337 -1.25093e-14
      vertex -14.425 57.337 -53.5
    endloop
  endfacet
  facet normal -0.987685 -0.156453 3.47396e-17
    outer loop
      vertex -14.425 57.337 -1.25093e-14
      vertex -14.556 58.164 -1.2693e-14
      vertex -14.425 57.337 -53.5
    endloop
  endfacet
  facet normal -0.987685 -0.156453 3.47396e-17
    outer loop
      vertex -14.425 57.337 -53.5
      vertex -14.556 58.164 -1.2693e-14
      vertex -14.556 58.164 -53.5
    endloop
  endfacet
  facet normal -0.998618 -0.0525588 1.16704e-17
    outer loop
      vertex -14.556 58.164 -1.2693e-14
      vertex -14.6 59 -1.28786e-14
      vertex -14.556 58.164 -53.5
    endloop
  endfacet
  facet normal -0.998618 -0.0525588 1.16704e-17
    outer loop
      vertex -14.556 58.164 -53.5
      vertex -14.6 59 -1.28786e-14
      vertex -14.6 59 -53.5
    endloop
  endfacet
  facet normal -0.998618 0.0525588 -1.16704e-17
    outer loop
      vertex -14.6 59 -1.28786e-14
      vertex -14.556 59.836 -1.30642e-14
      vertex -14.6 59 -53.5
    endloop
  endfacet
  facet normal -0.998618 0.0525588 -1.16704e-17
    outer loop
      vertex -14.6 59 -53.5
      vertex -14.556 59.836 -1.30642e-14
      vertex -14.556 59.836 -53.5
    endloop
  endfacet
  facet normal -0.987685 0.156453 -3.47396e-17
    outer loop
      vertex -14.556 59.836 -1.30642e-14
      vertex -14.425 60.663 -1.32478e-14
      vertex -14.556 59.836 -53.5
    endloop
  endfacet
  facet normal -0.987685 0.156453 -3.47396e-17
    outer loop
      vertex -14.556 59.836 -53.5
      vertex -14.425 60.663 -1.32478e-14
      vertex -14.425 60.663 -53.5
    endloop
  endfacet
  facet normal -0.965857 0.259074 -5.7526e-17
    outer loop
      vertex -14.425 60.663 -1.32478e-14
      vertex -14.208 61.472 -1.34275e-14
      vertex -14.425 60.663 -53.5
    endloop
  endfacet
  facet normal -0.965857 0.259074 -5.7526e-17
    outer loop
      vertex -14.425 60.663 -53.5
      vertex -14.208 61.472 -1.34275e-14
      vertex -14.208 61.472 -53.5
    endloop
  endfacet
  facet normal -0.933653 0.358179 -7.95317e-17
    outer loop
      vertex -14.208 61.472 -1.34275e-14
      vertex -13.908 62.254 -1.36011e-14
      vertex -14.208 61.472 -53.5
    endloop
  endfacet
  facet normal -0.933653 0.358179 -7.95317e-17
    outer loop
      vertex -14.208 61.472 -53.5
      vertex -13.908 62.254 -1.36011e-14
      vertex -13.908 62.254 -53.5
    endloop
  endfacet
  facet normal -0.891058 0.45389 -1.00784e-16
    outer loop
      vertex -13.908 62.254 -1.36011e-14
      vertex -13.528 63 -1.37668e-14
      vertex -13.908 62.254 -53.5
    endloop
  endfacet
  facet normal -0.891058 0.45389 -1.00784e-16
    outer loop
      vertex -13.908 62.254 -53.5
      vertex -13.528 63 -1.37668e-14
      vertex -13.528 63 -53.5
    endloop
  endfacet
  facet normal -0.838607 0.544736 -1.20956e-16
    outer loop
      vertex -13.528 63 -1.37668e-14
      vertex -13.072 63.702 -1.39226e-14
      vertex -13.528 63 -53.5
    endloop
  endfacet
  facet normal -0.838607 0.544736 -1.20956e-16
    outer loop
      vertex -13.528 63 -53.5
      vertex -13.072 63.702 -1.39226e-14
      vertex -13.072 63.702 -53.5
    endloop
  endfacet
  facet normal -0.777245 0.629198 -1.3971e-16
    outer loop
      vertex -13.072 63.702 -1.39226e-14
      vertex -12.545 64.353 -1.40672e-14
      vertex -13.072 63.702 -53.5
    endloop
  endfacet
  facet normal -0.777245 0.629198 -1.3971e-16
    outer loop
      vertex -13.072 63.702 -53.5
      vertex -12.545 64.353 -1.40672e-14
      vertex -12.545 64.353 -53.5
    endloop
  endfacet
  facet normal -0.707107 0.707107 -1.57009e-16
    outer loop
      vertex -12.545 64.353 -1.40672e-14
      vertex -11.953 64.945 -1.41986e-14
      vertex -12.545 64.353 -53.5
    endloop
  endfacet
  facet normal -0.707107 0.707107 -1.57009e-16
    outer loop
      vertex -12.545 64.353 -53.5
      vertex -11.953 64.945 -1.41986e-14
      vertex -11.953 64.945 -53.5
    endloop
  endfacet
  facet normal -0.629198 0.777245 -1.72583e-16
    outer loop
      vertex -11.953 64.945 -1.41986e-14
      vertex -11.302 65.472 -1.43157e-14
      vertex -11.953 64.945 -53.5
    endloop
  endfacet
  facet normal -0.629198 0.777245 -1.72583e-16
    outer loop
      vertex -11.953 64.945 -53.5
      vertex -11.302 65.472 -1.43157e-14
      vertex -11.302 65.472 -53.5
    endloop
  endfacet
  facet normal -0.544736 0.838607 -1.86208e-16
    outer loop
      vertex -11.302 65.472 -1.43157e-14
      vertex -10.6 65.928 -1.44169e-14
      vertex -11.302 65.472 -53.5
    endloop
  endfacet
  facet normal -0.544736 0.838607 -1.86208e-16
    outer loop
      vertex -11.302 65.472 -53.5
      vertex -10.6 65.928 -1.44169e-14
      vertex -10.6 65.928 -53.5
    endloop
  endfacet
  facet normal -0.45389 0.891058 -1.97855e-16
    outer loop
      vertex -10.6 65.928 -1.44169e-14
      vertex -9.854 66.308 -1.45013e-14
      vertex -10.6 65.928 -53.5
    endloop
  endfacet
  facet normal -0.45389 0.891058 -1.97855e-16
    outer loop
      vertex -10.6 65.928 -53.5
      vertex -9.854 66.308 -1.45013e-14
      vertex -9.854 66.308 -53.5
    endloop
  endfacet
  facet normal -0.358179 0.933653 -2.07313e-16
    outer loop
      vertex -9.854 66.308 -1.45013e-14
      vertex -9.072 66.608 -1.45679e-14
      vertex -9.854 66.308 -53.5
    endloop
  endfacet
  facet normal -0.358179 0.933653 -2.07313e-16
    outer loop
      vertex -9.854 66.308 -53.5
      vertex -9.072 66.608 -1.45679e-14
      vertex -9.072 66.608 -53.5
    endloop
  endfacet
  facet normal -0.259074 0.965857 -2.14463e-16
    outer loop
      vertex -9.072 66.608 -1.45679e-14
      vertex -8.263 66.825 -1.46161e-14
      vertex -9.072 66.608 -53.5
    endloop
  endfacet
  facet normal -0.259074 0.965857 -2.14463e-16
    outer loop
      vertex -9.072 66.608 -53.5
      vertex -8.263 66.825 -1.46161e-14
      vertex -8.263 66.825 -53.5
    endloop
  endfacet
  facet normal -0.156453 0.987685 -2.1931e-16
    outer loop
      vertex -8.263 66.825 -1.46161e-14
      vertex -7.436 66.956 -1.46452e-14
      vertex -8.263 66.825 -53.5
    endloop
  endfacet
  facet normal -0.156453 0.987685 -2.1931e-16
    outer loop
      vertex -8.263 66.825 -53.5
      vertex -7.436 66.956 -1.46452e-14
      vertex -7.436 66.956 -53.5
    endloop
  endfacet
  facet normal -0.0525588 0.998618 -2.21738e-16
    outer loop
      vertex -7.436 66.956 -1.46452e-14
      vertex -6.6 67 -1.46549e-14
      vertex -7.436 66.956 -53.5
    endloop
  endfacet
  facet normal -0.0525588 0.998618 -2.21738e-16
    outer loop
      vertex -7.436 66.956 -53.5
      vertex -6.6 67 -1.46549e-14
      vertex -6.6 67 -53.5
    endloop
  endfacet
  facet normal 0 1 -2.22045e-16
    outer loop
      vertex -6.6 67 -1.46549e-14
      vertex 1 67 -1.46549e-14
      vertex -6.6 67 -53.5
    endloop
  endfacet
  facet normal 0 1 -2.22045e-16
    outer loop
      vertex -6.6 67 -53.5
      vertex 1 67 -1.46549e-14
      vertex 1 67 -53.5
    endloop
  endfacet
  facet normal 1 -4.93038e-32 1.09476e-47
    outer loop
      vertex 1 5 -23.5
      vertex 1 1.18794e-14 2.22045e-16
      vertex 1 0 -53.5
    endloop
  endfacet
  facet normal 1 -4.93038e-32 1.09476e-47
    outer loop
      vertex 1 67 -1.46549e-14
      vertex 1 1.18794e-14 2.22045e-16
      vertex 1 5 -23.5
    endloop
  endfacet
  facet normal 1 -4.93038e-32 1.09476e-47
    outer loop
      vertex 1 67 -1.46549e-14
      vertex 1 5 -23.5
      vertex 1 10 -23.5
    endloop
  endfacet
  facet normal 1 -4.93038e-32 1.09476e-47
    outer loop
      vertex 1 52 -23.5
      vertex 1 52 -53.5
      vertex 1 67 -53.5
    endloop
  endfacet
  facet normal 1 -4.93038e-32 1.09476e-47
    outer loop
      vertex 1 67 -1.46549e-14
      vertex 1 10 -23.5
      vertex 1 15.5 -23.5
    endloop
  endfacet
  facet normal 1 -4.93038e-32 1.09476e-47
    outer loop
      vertex 1 47 -23.5
      vertex 1 67 -1.46549e-14
      vertex 1 41.5 -23.5
    endloop
  endfacet
  facet normal 1 -4.93038e-32 1.09476e-47
    outer loop
      vertex 1 52 -23.5
      vertex 1 67 -1.46549e-14
      vertex 1 47 -23.5
    endloop
  endfacet
  facet normal 1 -4.93038e-32 1.09476e-47
    outer loop
      vertex 1 67 -53.5
      vertex 1 67 -1.46549e-14
      vertex 1 52 -23.5
    endloop
  endfacet
  facet normal 1 -4.93038e-32 1.09476e-47
    outer loop
      vertex 1 67 -53.5
      vertex 1 52 -53.5
      vertex 1 47 -53.5
    endloop
  endfacet
  facet normal 1 -4.93038e-32 1.09476e-47
    outer loop
      vertex 1 67 -53.5
      vertex 1 47 -53.5
      vertex 1 41.5 -53.5
    endloop
  endfacet
  facet normal 1 -4.93038e-32 1.09476e-47
    outer loop
      vertex 1 67 -53.5
      vertex 1 41.5 -53.5
      vertex 1 15.5 -53.5
    endloop
  endfacet
  facet normal 1 -4.93038e-32 1.09476e-47
    outer loop
      vertex 1 67 -53.5
      vertex 1 15.5 -53.5
      vertex 1 10 -53.5
    endloop
  endfacet
  facet normal 1 -4.93038e-32 1.09476e-47
    outer loop
      vertex 1 67 -53.5
      vertex 1 5 -53.5
      vertex 1 0 -53.5
    endloop
  endfacet
  facet normal 1 -4.93038e-32 1.09476e-47
    outer loop
      vertex 1 67 -53.5
      vertex 1 10 -53.5
      vertex 1 5 -53.5
    endloop
  endfacet
  facet normal 1 -4.93038e-32 1.09476e-47
    outer loop
      vertex 1 15.5 -23.5
      vertex 1 41.5 -23.5
      vertex 1 67 -1.46549e-14
    endloop
  endfacet
  facet normal 1 -4.93038e-32 1.09476e-47
    outer loop
      vertex 1 5 -53.5
      vertex 1 5 -23.5
      vertex 1 0 -53.5
    endloop
  endfacet
  facet normal -2.22045e-16 0 1
    outer loop
      vertex 1 10 -23.5
      vertex 1 5 -23.5
      vertex 6 5 -23.5
    endloop
  endfacet
  facet normal -2.22045e-16 0 1
    outer loop
      vertex 6 10 -23.5
      vertex 1 10 -23.5
      vertex 6 5 -23.5
    endloop
  endfacet
  facet normal 0 -1 0
    outer loop
      vertex 6 5 -23.5
      vertex 1 5 -23.5
      vertex 1 5 -53.5
    endloop
  endfacet
  facet normal 0 -1 0
    outer loop
      vertex 6 5 -53.5
      vertex 6 5 -23.5
      vertex 1 5 -53.5
    endloop
  endfacet
  facet normal 2.22045e-16 0 -1
    outer loop
      vertex 1 5 -53.5
      vertex 1 10 -53.5
      vertex 6 5 -53.5
    endloop
  endfacet
  facet normal 2.22045e-16 0 -1
    outer loop
      vertex 6 5 -53.5
      vertex 1 10 -53.5
      vertex 6 10 -53.5
    endloop
  endfacet
  facet normal 0 1 0
    outer loop
      vertex 6 10 -23.5
      vertex 6 10 -25.5
      vertex 1 10 -23.5
    endloop
  endfacet
  facet normal 0 1 0
    outer loop
      vertex 1 10 -23.5
      vertex 6 10 -25.5
      vertex 3 10 -25.5
    endloop
  endfacet
  facet normal 0 1 0
    outer loop
      vertex 1 10 -23.5
      vertex 3 10 -25.5
      vertex 3 10 -51.5
    endloop
  endfacet
  facet normal 0 1 0
    outer loop
      vertex 3 10 -51.5
      vertex 6 10 -51.5
      vertex 6 10 -53.5
    endloop
  endfacet
  facet normal 0 1 0
    outer loop
      vertex 3 10 -51.5
      vertex 6 10 -53.5
      vertex 1 10 -53.5
    endloop
  endfacet
  facet normal 0 1 0
    outer loop
      vertex 3 10 -51.5
      vertex 1 10 -53.5
      vertex 1 10 -23.5
    endloop
  endfacet
  facet normal 0 -1 0
    outer loop
      vertex 1 15.5 -53.5
      vertex 11 15.5 -53.5
      vertex 11 15.5 -51.5
    endloop
  endfacet
  facet normal 0 -1 0
    outer loop
      vertex 3 15.5 -51.5
      vertex 1 15.5 -53.5
      vertex 11 15.5 -51.5
    endloop
  endfacet
  facet normal 0 -1 0
    outer loop
      vertex 3 15.5 -25.5
      vertex 1 15.5 -53.5
      vertex 3 15.5 -51.5
    endloop
  endfacet
  facet normal 0 -1 0
    outer loop
      vertex 1 15.5 -23.5
      vertex 1 15.5 -53.5
      vertex 3 15.5 -25.5
    endloop
  endfacet
  facet normal 0 -1 0
    outer loop
      vertex 11 15.5 -23.5
      vertex 3 15.5 -25.5
      vertex 11 15.5 -25.5
    endloop
  endfacet
  facet normal 0 -1 0
    outer loop
      vertex 1 15.5 -23.5
      vertex 3 15.5 -25.5
      vertex 11 15.5 -23.5
    endloop
  endfacet
  facet normal 2.22045e-16 0 -1
    outer loop
      vertex 1 15.5 -53.5
      vertex 1 41.5 -53.5
      vertex 11 15.5 -53.5
    endloop
  endfacet
  facet normal 2.22045e-16 0 -1
    outer loop
      vertex 11 15.5 -53.5
      vertex 1 41.5 -53.5
      vertex 11 41.5 -53.5
    endloop
  endfacet
  facet normal 0 1 0
    outer loop
      vertex 11 41.5 -23.5
      vertex 11 41.5 -25.5
      vertex 1 41.5 -23.5
    endloop
  endfacet
  facet normal 0 1 0
    outer loop
      vertex 1 41.5 -23.5
      vertex 11 41.5 -25.5
      vertex 3 41.5 -25.5
    endloop
  endfacet
  facet normal 0 1 0
    outer loop
      vertex 1 41.5 -23.5
      vertex 3 41.5 -25.5
      vertex 3 41.5 -51.5
    endloop
  endfacet
  facet normal 0 1 0
    outer loop
      vertex 3 41.5 -51.5
      vertex 11 41.5 -51.5
      vertex 11 41.5 -53.5
    endloop
  endfacet
  facet normal 0 1 0
    outer loop
      vertex 3 41.5 -51.5
      vertex 11 41.5 -53.5
      vertex 1 41.5 -53.5
    endloop
  endfacet
  facet normal 0 1 0
    outer loop
      vertex 3 41.5 -51.5
      vertex 1 41.5 -53.5
      vertex 1 41.5 -23.5
    endloop
  endfacet
  facet normal 0 -1 0
    outer loop
      vertex 3 47 -51.5
      vertex 1 47 -23.5
      vertex 1 47 -53.5
    endloop
  endfacet
  facet normal 0 -1 0
    outer loop
      vertex 3 47 -51.5
      vertex 3 47 -25.5
      vertex 1 47 -23.5
    endloop
  endfacet
  facet normal 0 -1 0
    outer loop
      vertex 6 47 -53.5
      vertex 3 47 -51.5
      vertex 1 47 -53.5
    endloop
  endfacet
  facet normal 0 -1 0
    outer loop
      vertex 6 47 -25.5
      vertex 1 47 -23.5
      vertex 3 47 -25.5
    endloop
  endfacet
  facet normal 0 -1 0
    outer loop
      vertex 6 47 -23.5
      vertex 1 47 -23.5
      vertex 6 47 -25.5
    endloop
  endfacet
  facet normal 0 -1 0
    outer loop
      vertex 6 47 -51.5
      vertex 3 47 -51.5
      vertex 6 47 -53.5
    endloop
  endfacet
  facet normal 2.22045e-16 0 -1
    outer loop
      vertex 1 47 -53.5
      vertex 1 52 -53.5
      vertex 6 47 -53.5
    endloop
  endfacet
  facet normal 2.22045e-16 0 -1
    outer loop
      vertex 6 47 -53.5
      vertex 1 52 -53.5
      vertex 6 52 -53.5
    endloop
  endfacet
  facet normal 0 1 0
    outer loop
      vertex 1 52 -23.5
      vertex 6 52 -23.5
      vertex 1 52 -53.5
    endloop
  endfacet
  facet normal 0 1 0
    outer loop
      vertex 1 52 -53.5
      vertex 6 52 -23.5
      vertex 6 52 -53.5
    endloop
  endfacet
  facet normal -2.22045e-16 0 1
    outer loop
      vertex 1 52 -23.5
      vertex 1 47 -23.5
      vertex 6 47 -23.5
    endloop
  endfacet
  facet normal -2.22045e-16 0 1
    outer loop
      vertex 6 52 -23.5
      vertex 1 52 -23.5
      vertex 6 47 -23.5
    endloop
  endfacet
  facet normal -2.22045e-16 0 1
    outer loop
      vertex 1 41.5 -23.5
      vertex 1 15.5 -23.5
      vertex 11 15.5 -23.5
    endloop
  endfacet
  facet normal -2.22045e-16 0 1
    outer loop
      vertex 11 41.5 -23.5
      vertex 1 41.5 -23.5
      vertex 11 15.5 -23.5
    endloop
  endfacet
  facet normal 1 0 2.22045e-16
    outer loop
      vertex 6 10 -23.5
      vertex 6 5 -23.5
      vertex 6 5 -53.5
    endloop
  endfacet
  facet normal 1 0 2.22045e-16
    outer loop
      vertex 6 10 -25.5
      vertex 6 10 -23.5
      vertex 6 5 -53.5
    endloop
  endfacet
  facet normal 1 0 2.22045e-16
    outer loop
      vertex 6 10 -53.5
      vertex 6 10 -51.5
      vertex 6 5 -53.5
    endloop
  endfacet
  facet normal 1 0 2.22045e-16
    outer loop
      vertex 6 10 -51.5
      vertex 6 10 -25.5
      vertex 6 5 -53.5
    endloop
  endfacet
  facet normal 1 0 2.22045e-16
    outer loop
      vertex 1 10 -53.5
      vertex 1 15.5 -53.5
      vertex 1 15.5 -23.5
    endloop
  endfacet
  facet normal 1 0 2.22045e-16
    outer loop
      vertex 1 10 -23.5
      vertex 1 10 -53.5
      vertex 1 15.5 -23.5
    endloop
  endfacet
  facet normal 0 -1 0
    outer loop
      vertex 6.09587 10 -40.3292
      vertex 6 10 -25.5
      vertex 6 10 -51.5
    endloop
  endfacet
  facet normal 0 -1 0
    outer loop
      vertex 6.09587 10 -36.6708
      vertex 6.85651 10 -33.0922
      vertex 6 10 -25.5
    endloop
  endfacet
  facet normal 0 -1 0
    outer loop
      vertex 11 10 -51.5
      vertex 11 10 -50.6645
      vertex 6 10 -51.5
    endloop
  endfacet
  facet normal 0 -1 0
    outer loop
      vertex 11 10 -50.6645
      vertex 10.495 10 -50.2098
      vertex 6 10 -51.5
    endloop
  endfacet
  facet normal 0 -1 0
    outer loop
      vertex 10.495 10 -50.2098
      vertex 8.34456 10 -47.25
      vertex 6 10 -51.5
    endloop
  endfacet
  facet normal 0 -1 0
    outer loop
      vertex 6.85651 10 -43.9078
      vertex 6.09587 10 -40.3292
      vertex 6 10 -51.5
    endloop
  endfacet
  facet normal 0 -1 0
    outer loop
      vertex 6.09587 10 -36.6708
      vertex 6 10 -25.5
      vertex 6.09587 10 -40.3292
    endloop
  endfacet
  facet normal 0 -1 0
    outer loop
      vertex 8.34456 10 -29.75
      vertex 10.495 10 -26.7902
      vertex 11 10 -25.5
    endloop
  endfacet
  facet normal 0 -1 0
    outer loop
      vertex 8.34456 10 -29.75
      vertex 6 10 -25.5
      vertex 6.85651 10 -33.0922
    endloop
  endfacet
  facet normal 0 -1 0
    outer loop
      vertex 11 10 -25.5
      vertex 6 10 -25.5
      vertex 8.34456 10 -29.75
    endloop
  endfacet
  facet normal 0 -1 0
    outer loop
      vertex 8.34456 10 -47.25
      vertex 6.85651 10 -43.9078
      vertex 6 10 -51.5
    endloop
  endfacet
  facet normal 0 -1 0
    outer loop
      vertex 10.495 10 -26.7902
      vertex 11 10 -26.3355
      vertex 11 10 -25.5
    endloop
  endfacet
  facet normal 2.22045e-16 0 -1
    outer loop
      vertex 11 15.5 -51.5
      vertex 11 10 -51.5
      vertex 3 15.5 -51.5
    endloop
  endfacet
  facet normal 2.22045e-16 0 -1
    outer loop
      vertex 3 15.5 -51.5
      vertex 11 10 -51.5
      vertex 6 10 -51.5
    endloop
  endfacet
  facet normal 2.22045e-16 0 -1
    outer loop
      vertex 3 15.5 -51.5
      vertex 6 10 -51.5
      vertex 3 10 -51.5
    endloop
  endfacet
  facet normal -1 0 -2.22045e-16
    outer loop
      vertex 3 15.5 -51.5
      vertex 3 10 -51.5
      vertex 3 15.5 -25.5
    endloop
  endfacet
  facet normal -1 0 -2.22045e-16
    outer loop
      vertex 3 15.5 -25.5
      vertex 3 10 -51.5
      vertex 3 10 -25.5
    endloop
  endfacet
  facet normal -2.22045e-16 0 1
    outer loop
      vertex 6 10 -25.5
      vertex 11 10 -25.5
      vertex 11 15.5 -25.5
    endloop
  endfacet
  facet normal -2.22045e-16 0 1
    outer loop
      vertex 3 10 -25.5
      vertex 6 10 -25.5
      vertex 3 15.5 -25.5
    endloop
  endfacet
  facet normal -2.22045e-16 0 1
    outer loop
      vertex 3 15.5 -25.5
      vertex 6 10 -25.5
      vertex 11 15.5 -25.5
    endloop
  endfacet
  facet normal 1 0 2.22045e-16
    outer loop
      vertex 11 41.5 -23.5
      vertex 11 15.5 -23.5
      vertex 11 15.5 -25.5
    endloop
  endfacet
  facet normal 1 0 2.22045e-16
    outer loop
      vertex 11 10 -26.3355
      vertex 11 41.5 -23.5
      vertex 11 15.5 -25.5
    endloop
  endfacet
  facet normal 1 0 2.22045e-16
    outer loop
      vertex 11 10 -25.5
      vertex 11 10 -26.3355
      vertex 11 15.5 -25.5
    endloop
  endfacet
  facet normal 1 0 2.22045e-16
    outer loop
      vertex 11 10 -26.3355
      vertex 11 41.5 -25.5
      vertex 11 41.5 -23.5
    endloop
  endfacet
  facet normal 1 0 2.22045e-16
    outer loop
      vertex 11 10 -26.3355
      vertex 11 47 -26.3355
      vertex 11 41.5 -25.5
    endloop
  endfacet
  facet normal 1 0 2.22045e-16
    outer loop
      vertex 11 47 -25.5
      vertex 11 41.5 -25.5
      vertex 11 47 -26.3355
    endloop
  endfacet
  facet normal 1 0 2.22045e-16
    outer loop
      vertex 11 47 -51.5
      vertex 11 47 -50.6645
      vertex 11 10 -50.6645
    endloop
  endfacet
  facet normal 1 0 2.22045e-16
    outer loop
      vertex 11 41.5 -51.5
      vertex 11 47 -51.5
      vertex 11 10 -50.6645
    endloop
  endfacet
  facet normal 1 0 2.22045e-16
    outer loop
      vertex 11 15.5 -51.5
      vertex 11 41.5 -51.5
      vertex 11 10 -50.6645
    endloop
  endfacet
  facet normal 1 0 2.22045e-16
    outer loop
      vertex 11 10 -51.5
      vertex 11 15.5 -51.5
      vertex 11 10 -50.6645
    endloop
  endfacet
  facet normal 1 0 2.22045e-16
    outer loop
      vertex 11 15.5 -53.5
      vertex 11 41.5 -51.5
      vertex 11 15.5 -51.5
    endloop
  endfacet
  facet normal 1 0 2.22045e-16
    outer loop
      vertex 11 41.5 -53.5
      vertex 11 41.5 -51.5
      vertex 11 15.5 -53.5
    endloop
  endfacet
  facet normal 1 0 2.22045e-16
    outer loop
      vertex 1 41.5 -53.5
      vertex 1 47 -53.5
      vertex 1 47 -23.5
    endloop
  endfacet
  facet normal 1 0 2.22045e-16
    outer loop
      vertex 1 41.5 -23.5
      vertex 1 41.5 -53.5
      vertex 1 47 -23.5
    endloop
  endfacet
  facet normal 2.22045e-16 0 -1
    outer loop
      vertex 11 47 -51.5
      vertex 11 41.5 -51.5
      vertex 6 47 -51.5
    endloop
  endfacet
  facet normal 2.22045e-16 0 -1
    outer loop
      vertex 6 47 -51.5
      vertex 11 41.5 -51.5
      vertex 3 47 -51.5
    endloop
  endfacet
  facet normal 2.22045e-16 0 -1
    outer loop
      vertex 3 47 -51.5
      vertex 11 41.5 -51.5
      vertex 3 41.5 -51.5
    endloop
  endfacet
  facet normal -1 0 -2.22045e-16
    outer loop
      vertex 3 47 -51.5
      vertex 3 41.5 -51.5
      vertex 3 47 -25.5
    endloop
  endfacet
  facet normal -1 0 -2.22045e-16
    outer loop
      vertex 3 47 -25.5
      vertex 3 41.5 -51.5
      vertex 3 41.5 -25.5
    endloop
  endfacet
  facet normal -2.22045e-16 0 1
    outer loop
      vertex 11 41.5 -25.5
      vertex 11 47 -25.5
      vertex 6 47 -25.5
    endloop
  endfacet
  facet normal -2.22045e-16 0 1
    outer loop
      vertex 3 41.5 -25.5
      vertex 11 41.5 -25.5
      vertex 3 47 -25.5
    endloop
  endfacet
  facet normal -2.22045e-16 0 1
    outer loop
      vertex 3 47 -25.5
      vertex 11 41.5 -25.5
      vertex 6 47 -25.5
    endloop
  endfacet
  facet normal 1 0 2.22045e-16
    outer loop
      vertex 6 52 -23.5
      vertex 6 47 -23.5
      vertex 6 47 -25.5
    endloop
  endfacet
  facet normal 1 0 2.22045e-16
    outer loop
      vertex 6 47 -53.5
      vertex 6 52 -23.5
      vertex 6 47 -51.5
    endloop
  endfacet
  facet normal 1 0 2.22045e-16
    outer loop
      vertex 6 47 -51.5
      vertex 6 52 -23.5
      vertex 6 47 -25.5
    endloop
  endfacet
  facet normal 1 0 2.22045e-16
    outer loop
      vertex 6 52 -53.5
      vertex 6 52 -23.5
      vertex 6 47 -53.5
    endloop
  endfacet
  facet normal 0 1 0
    outer loop
      vertex 6.85651 47 -43.9078
      vertex 6 47 -51.5
      vertex 6.09587 47 -40.3292
    endloop
  endfacet
  facet normal 0 1 0
    outer loop
      vertex 6 47 -25.5
      vertex 11 47 -25.5
      vertex 10.495 47 -26.7902
    endloop
  endfacet
  facet normal 0 1 0
    outer loop
      vertex 6 47 -25.5
      vertex 10.495 47 -26.7902
      vertex 8.34456 47 -29.75
    endloop
  endfacet
  facet normal 0 1 0
    outer loop
      vertex 6 47 -25.5
      vertex 8.34456 47 -29.75
      vertex 6.85651 47 -33.0922
    endloop
  endfacet
  facet normal 0 1 0
    outer loop
      vertex 6 47 -25.5
      vertex 6.85651 47 -33.0922
      vertex 6.09587 47 -36.6708
    endloop
  endfacet
  facet normal 0 1 0
    outer loop
      vertex 6 47 -25.5
      vertex 6.09587 47 -36.6708
      vertex 6 47 -51.5
    endloop
  endfacet
  facet normal 0 1 0
    outer loop
      vertex 6.09587 47 -36.6708
      vertex 6.09587 47 -40.3292
      vertex 6 47 -51.5
    endloop
  endfacet
  facet normal 0 1 0
    outer loop
      vertex 8.34456 47 -47.25
      vertex 6 47 -51.5
      vertex 6.85651 47 -43.9078
    endloop
  endfacet
  facet normal 0 1 0
    outer loop
      vertex 6 47 -51.5
      vertex 8.34456 47 -47.25
      vertex 10.495 47 -50.2098
    endloop
  endfacet
  facet normal 0 1 0
    outer loop
      vertex 10.495 47 -50.2098
      vertex 11 47 -50.6645
      vertex 6 47 -51.5
    endloop
  endfacet
  facet normal 0 1 0
    outer loop
      vertex 6 47 -51.5
      vertex 11 47 -50.6645
      vertex 11 47 -51.5
    endloop
  endfacet
  facet normal 0 1 0
    outer loop
      vertex 10.495 47 -26.7902
      vertex 11 47 -25.5
      vertex 11 47 -26.3355
    endloop
  endfacet
  facet normal 0.669131 -1.48577e-16 -0.743145
    outer loop
      vertex 10.495 47 -26.7902
      vertex 11 47 -26.3355
      vertex 10.495 10 -26.7902
    endloop
  endfacet
  facet normal 0.669131 -1.48577e-16 -0.743145
    outer loop
      vertex 10.495 10 -26.7902
      vertex 11 47 -26.3355
      vertex 11 10 -26.3355
    endloop
  endfacet
  facet normal 0.809017 -1.79638e-16 -0.587785
    outer loop
      vertex 8.34456 10 -29.75
      vertex 8.34456 47 -29.75
      vertex 10.495 47 -26.7902
    endloop
  endfacet
  facet normal 0.809017 -1.79638e-16 -0.587785
    outer loop
      vertex 10.495 10 -26.7902
      vertex 8.34456 10 -29.75
      vertex 10.495 47 -26.7902
    endloop
  endfacet
  facet normal 0.913546 -2.02848e-16 -0.406736
    outer loop
      vertex 6.85651 10 -33.0922
      vertex 6.85651 47 -33.0922
      vertex 8.34456 47 -29.75
    endloop
  endfacet
  facet normal 0.913546 -2.02848e-16 -0.406736
    outer loop
      vertex 8.34456 10 -29.75
      vertex 6.85651 10 -33.0922
      vertex 8.34456 47 -29.75
    endloop
  endfacet
  facet normal 0.978148 -2.17192e-16 -0.207912
    outer loop
      vertex 6.09587 10 -36.6708
      vertex 6.09587 47 -36.6708
      vertex 6.85651 47 -33.0922
    endloop
  endfacet
  facet normal 0.978148 -2.17192e-16 -0.207912
    outer loop
      vertex 6.85651 10 -33.0922
      vertex 6.09587 10 -36.6708
      vertex 6.85651 47 -33.0922
    endloop
  endfacet
  facet normal 1 -2.22045e-16 2.22045e-16
    outer loop
      vertex 6.09587 10 -40.3292
      vertex 6.09587 47 -40.3292
      vertex 6.09587 47 -36.6708
    endloop
  endfacet
  facet normal 1 -2.22045e-16 2.22045e-16
    outer loop
      vertex 6.09587 10 -36.6708
      vertex 6.09587 10 -40.3292
      vertex 6.09587 47 -36.6708
    endloop
  endfacet
  facet normal 0.978148 -2.17192e-16 0.207912
    outer loop
      vertex 6.85651 10 -43.9078
      vertex 6.85651 47 -43.9078
      vertex 6.09587 47 -40.3292
    endloop
  endfacet
  facet normal 0.978148 -2.17192e-16 0.207912
    outer loop
      vertex 6.09587 10 -40.3292
      vertex 6.85651 10 -43.9078
      vertex 6.09587 47 -40.3292
    endloop
  endfacet
  facet normal 0.913546 -2.02848e-16 0.406736
    outer loop
      vertex 8.34456 10 -47.25
      vertex 8.34456 47 -47.25
      vertex 6.85651 47 -43.9078
    endloop
  endfacet
  facet normal 0.913546 -2.02848e-16 0.406736
    outer loop
      vertex 6.85651 10 -43.9078
      vertex 8.34456 10 -47.25
      vertex 6.85651 47 -43.9078
    endloop
  endfacet
  facet normal 0.809017 -1.79638e-16 0.587785
    outer loop
      vertex 10.495 10 -50.2098
      vertex 10.495 47 -50.2098
      vertex 8.34456 47 -47.25
    endloop
  endfacet
  facet normal 0.809017 -1.79638e-16 0.587785
    outer loop
      vertex 8.34456 10 -47.25
      vertex 10.495 10 -50.2098
      vertex 8.34456 47 -47.25
    endloop
  endfacet
  facet normal 0.669131 -1.48577e-16 0.743145
    outer loop
      vertex 11 10 -50.6645
      vertex 11 47 -50.6645
      vertex 10.495 47 -50.2098
    endloop
  endfacet
  facet normal 0.669131 -1.48577e-16 0.743145
    outer loop
      vertex 10.495 10 -50.2098
      vertex 11 10 -50.6645
      vertex 10.495 47 -50.2098
    endloop
  endfacet
endsolid OpenSCAD_Model
